<svg xmlns="http://www.w3.org/2000/svg" xmlns:xlink="http://www.w3.org/1999/xlink" contentStyleType="text/css" height="867px" preserveAspectRatio="none" style="width:1027px;height:867px;background:#DDDDDD;" version="1.1" viewBox="0 0 1027 867" width="1027px" zoomAndPan="magnify"><defs/><g><rect fill="#DDDDDD" height="867" style="stroke:none;stroke-width:1.0;" width="1027" x="0" y="0"/><rect fill="#FFFFFF" height="420.8906" style="stroke:#454645;stroke-width:1.0;" width="10" x="194.2822" y="114.9609"/><rect fill="#FFFFFF" height="255.8125" style="stroke:#454645;stroke-width:1.0;" width="10" x="526.0991" y="586.2031"/><rect fill="#FFFFFF" height="30.3516" style="stroke:#454645;stroke-width:1.0;" width="10" x="626.7334" y="616.5547"/><rect fill="#FFFFFF" height="134.4063" style="stroke:#454645;stroke-width:1.0;" width="10" x="723.4883" y="677.2578"/><rect fill="none" height="398.8906" rx="3.5" ry="3.5" style="stroke:#454645;stroke-width:1.0;" width="1010.125" x="10" y="129.9609"/><rect fill="none" height="125.2422" rx="3.5" ry="3.5" style="stroke:#454645;stroke-width:1.0;" width="387.5903" x="20" y="396.6094"/><line style="stroke:#454645;stroke-width:0.5;" x1="85" x2="85" y1="82.6094" y2="535.8516"/><line style="stroke:#454645;stroke-width:1.0;stroke-dasharray:1.0,4.0;" x1="85" x2="85" y1="535.8516" y2="563.8516"/><line style="stroke:#454645;stroke-width:0.5;" x1="85" x2="85" y1="563.8516" y2="860.0156"/><line style="stroke:#454645;stroke-width:0.5;" x1="199.2686" x2="199.2686" y1="82.6094" y2="535.8516"/><line style="stroke:#454645;stroke-width:1.0;stroke-dasharray:1.0,4.0;" x1="199.2686" x2="199.2686" y1="535.8516" y2="563.8516"/><line style="stroke:#454645;stroke-width:0.5;" x1="199.2686" x2="199.2686" y1="563.8516" y2="860.0156"/><line style="stroke:#454645;stroke-width:0.5;" x1="366.3628" x2="366.3628" y1="82.6094" y2="535.8516"/><line style="stroke:#454645;stroke-width:1.0;stroke-dasharray:1.0,4.0;" x1="366.3628" x2="366.3628" y1="535.8516" y2="563.8516"/><line style="stroke:#454645;stroke-width:0.5;" x1="366.3628" x2="366.3628" y1="563.8516" y2="860.0156"/><line style="stroke:#454645;stroke-width:0.5;" x1="530.582" x2="530.582" y1="82.6094" y2="535.8516"/><line style="stroke:#454645;stroke-width:1.0;stroke-dasharray:1.0,4.0;" x1="530.582" x2="530.582" y1="535.8516" y2="563.8516"/><line style="stroke:#454645;stroke-width:0.5;" x1="530.582" x2="530.582" y1="563.8516" y2="860.0156"/><line style="stroke:#454645;stroke-width:0.5;" x1="631.6162" x2="631.6162" y1="82.6094" y2="535.8516"/><line style="stroke:#454645;stroke-width:1.0;stroke-dasharray:1.0,4.0;" x1="631.6162" x2="631.6162" y1="535.8516" y2="563.8516"/><line style="stroke:#454645;stroke-width:0.5;" x1="631.6162" x2="631.6162" y1="563.8516" y2="860.0156"/><line style="stroke:#454645;stroke-width:0.5;" x1="727.8506" x2="727.8506" y1="82.6094" y2="535.8516"/><line style="stroke:#454645;stroke-width:1.0;stroke-dasharray:1.0,4.0;" x1="727.8506" x2="727.8506" y1="535.8516" y2="563.8516"/><line style="stroke:#454645;stroke-width:0.5;" x1="727.8506" x2="727.8506" y1="563.8516" y2="860.0156"/><line style="stroke:#454645;stroke-width:0.5;" x1="867.126" x2="867.126" y1="82.6094" y2="535.8516"/><line style="stroke:#454645;stroke-width:1.0;stroke-dasharray:1.0,4.0;" x1="867.126" x2="867.126" y1="535.8516" y2="563.8516"/><line style="stroke:#454645;stroke-width:0.5;" x1="867.126" x2="867.126" y1="563.8516" y2="860.0156"/><line style="stroke:#454645;stroke-width:0.5;" x1="976.1943" x2="976.1943" y1="82.6094" y2="535.8516"/><line style="stroke:#454645;stroke-width:1.0;stroke-dasharray:1.0,4.0;" x1="976.1943" x2="976.1943" y1="535.8516" y2="563.8516"/><line style="stroke:#454645;stroke-width:0.5;" x1="976.1943" x2="976.1943" y1="563.8516" y2="860.0156"/><text fill="#454645" font-family="sans-serif" font-size="14" lengthAdjust="spacing" textLength="104.2686" x="30" y="79.5332">User/Automation</text><ellipse cx="85.1343" cy="13.5" fill="#454645" rx="8" ry="8" style="stroke:#454645;stroke-width:0.5;"/><path d="M85.1343,21.5 L85.1343,48.5 M72.1343,29.5 L98.1343,29.5 M85.1343,48.5 L72.1343,63.5 M85.1343,48.5 L98.1343,63.5 " fill="none" style="stroke:#454645;stroke-width:0.5;"/><rect fill="#FF6F61" height="31.6094" rx="3.5" ry="3.5" style="stroke:#454645;stroke-width:1.5;" width="98.0273" x="150.2686" y="50"/><text fill="#FFFFFF" font-family="sans-serif" font-size="14" lengthAdjust="spacing" textLength="84.0273" x="157.2686" y="71.5332">Trigger Relay</text><path d="M341.3628,55 L392.5903,55 C397.5903,55 397.5903,68.8047 397.5903,68.8047 C397.5903,68.8047 397.5903,82.6094 392.5903,82.6094 L341.3628,82.6094 C336.3628,82.6094 336.3628,68.8047 336.3628,68.8047 C336.3628,68.8047 336.3628,55 341.3628,55 " fill="#FF6F61" style="stroke:#454645;stroke-width:1.5;"/><path d="M392.5903,55 C387.5903,55 387.5903,68.8047 387.5903,68.8047 C387.5903,82.6094 392.5903,82.6094 392.5903,82.6094 " fill="none" style="stroke:#454645;stroke-width:1.5;"/><text fill="#FFFFFF" font-family="sans-serif" font-size="14" lengthAdjust="spacing" textLength="41.2275" x="341.3628" y="74.5332">AMQP</text><rect fill="#FF6F61" height="31.6094" rx="3.5" ry="3.5" style="stroke:#454645;stroke-width:1.5;" width="133.0342" x="464.582" y="50"/><text fill="#FFFFFF" font-family="sans-serif" font-size="14" lengthAdjust="spacing" textLength="119.0342" x="471.582" y="71.5332">Mesh AMQP Relay</text><rect fill="#FF6F61" height="31.6094" rx="3.5" ry="3.5" style="stroke:#454645;stroke-width:1.5;" width="48.2344" x="607.6162" y="50"/><text fill="#FFFFFF" font-family="sans-serif" font-size="14" lengthAdjust="spacing" textLength="34.2344" x="614.6162" y="71.5332">Mesh</text><rect fill="#FF6F61" height="31.6094" rx="3.5" ry="3.5" style="stroke:#454645;stroke-width:1.5;" width="125.2754" x="665.8506" y="50"/><text fill="#FFFFFF" font-family="sans-serif" font-size="14" lengthAdjust="spacing" textLength="111.2754" x="672.8506" y="71.5332">Export Data Store</text><rect fill="#FF6F61" height="31.6094" rx="3.5" ry="3.5" style="stroke:#454645;stroke-width:1.5;" width="133.0684" x="801.126" y="50"/><text fill="#FFFFFF" font-family="sans-serif" font-size="14" lengthAdjust="spacing" textLength="119.0684" x="808.126" y="71.5332">Database Gateway</text><text fill="#454645" font-family="sans-serif" font-size="14" lengthAdjust="spacing" textLength="59.9307" x="944.1943" y="79.5332">Database</text><path d="M959.1597,29 C959.1597,19 977.1597,19 977.1597,19 C977.1597,19 995.1597,19 995.1597,29 L995.1597,55 C995.1597,65 977.1597,65 977.1597,65 C977.1597,65 959.1597,65 959.1597,55 L959.1597,29 " fill="#98DDDE" style="stroke:#454645;stroke-width:1.5;"/><path d="M959.1597,29 C959.1597,39 977.1597,39 977.1597,39 C977.1597,39 995.1597,39 995.1597,29 " fill="none" style="stroke:#454645;stroke-width:1.5;"/><rect fill="#FFFFFF" height="420.8906" style="stroke:#454645;stroke-width:1.0;" width="10" x="194.2822" y="114.9609"/><rect fill="#FFFFFF" height="255.8125" style="stroke:#454645;stroke-width:1.0;" width="10" x="526.0991" y="586.2031"/><rect fill="#FFFFFF" height="30.3516" style="stroke:#454645;stroke-width:1.0;" width="10" x="626.7334" y="616.5547"/><rect fill="#FFFFFF" height="134.4063" style="stroke:#454645;stroke-width:1.0;" width="10" x="723.4883" y="677.2578"/><polygon fill="#454645" points="182.2822,110.9609,192.2822,114.9609,182.2822,118.9609" style="stroke:#454645;stroke-width:1.0;"/><line style="stroke:#454645;stroke-width:1.0;" x1="85.1343" x2="188.2822" y1="114.9609" y2="114.9609"/><text fill="#000000" font-family="sans-serif" font-size="13" lengthAdjust="spacing" textLength="33.23" x="92.1343" y="110.1045">Order</text><path d="M13.5,129.9609 L70.1709,129.9609 L70.1709,138.3125 L60.1709,148.3125 L10,148.3125 L10,133.4609 A3.5,3.5 0 0 1 13.5,129.9609 " fill="#EEEEEE" style="stroke:#454645;stroke-width:1.5;"/><rect fill="none" height="398.8906" rx="3.5" ry="3.5" style="stroke:#454645;stroke-width:1.0;" width="1010.125" x="10" y="129.9609"/><text fill="#454645" font-family="sans-serif" font-size="13" font-weight="bold" lengthAdjust="spacing" textLength="15.1709" x="25" y="144.4561">alt</text><text fill="#454645" font-family="sans-serif" font-size="11" font-weight="bold" lengthAdjust="spacing" textLength="101.4814" x="85.1709" y="143.3799">[time series export]</text><polygon fill="#454645" points="855.6602,166.6641,865.6602,170.6641,855.6602,174.6641" style="stroke:#454645;stroke-width:1.0;"/><line style="stroke:#454645;stroke-width:1.0;" x1="204.2822" x2="861.6602" y1="170.6641" y2="170.6641"/><text fill="#000000" font-family="sans-serif" font-size="13" lengthAdjust="spacing" textLength="49.8672" x="211.2822" y="165.8076">Get data</text><polygon fill="#454645" points="965.1597,197.0156,975.1597,201.0156,965.1597,205.0156" style="stroke:#454645;stroke-width:1.0;"/><line style="stroke:#454645;stroke-width:1.0;" x1="867.6602" x2="971.1597" y1="201.0156" y2="201.0156"/><text fill="#000000" font-family="sans-serif" font-size="13" lengthAdjust="spacing" textLength="61.4263" x="874.6602" y="196.1592">Fetch data</text><polygon fill="#454645" points="878.6602,227.3672,868.6602,231.3672,878.6602,235.3672" style="stroke:#454645;stroke-width:1.0;"/><line style="stroke:#454645;stroke-width:1.0;stroke-dasharray:2.0,2.0;" x1="872.6602" x2="976.1597" y1="231.3672" y2="231.3672"/><text fill="#000000" font-family="sans-serif" font-size="13" lengthAdjust="spacing" textLength="58.5381" x="884.6602" y="226.5107">Response</text><polygon fill="#454645" points="215.2822,257.7188,205.2822,261.7188,215.2822,265.7188" style="stroke:#454645;stroke-width:1.0;"/><line style="stroke:#454645;stroke-width:1.0;stroke-dasharray:2.0,2.0;" x1="209.2822" x2="866.6602" y1="261.7188" y2="261.7188"/><text fill="#000000" font-family="sans-serif" font-size="13" lengthAdjust="spacing" textLength="58.5381" x="221.2822" y="256.8623">Response</text><polygon fill="#454645" points="354.9766,288.0703,364.9766,292.0703,354.9766,296.0703" style="stroke:#454645;stroke-width:1.0;"/><line style="stroke:#454645;stroke-width:1.0;" x1="204.2822" x2="360.9766" y1="292.0703" y2="292.0703"/><text fill="#000000" font-family="sans-serif" font-size="13" lengthAdjust="spacing" textLength="84.5444" x="211.2822" y="287.2139">Export request</text><polygon fill="#454645" points="96.1343,318.4219,86.1343,322.4219,96.1343,326.4219" style="stroke:#454645;stroke-width:1.0;"/><line style="stroke:#454645;stroke-width:1.0;" x1="90.1343" x2="193.2822" y1="322.4219" y2="322.4219"/><text fill="#000000" font-family="sans-serif" font-size="13" lengthAdjust="spacing" textLength="16.6118" x="102.1343" y="317.5654">Ok</text><line style="stroke:#454645;stroke-width:1.0;stroke-dasharray:2.0,2.0;" x1="10" x2="1020.125" y1="331.4219" y2="331.4219"/><text fill="#454645" font-family="sans-serif" font-size="11" font-weight="bold" lengthAdjust="spacing" textLength="100.2515" x="15" y="342.8408">[availability export]</text><line style="stroke:#454645;stroke-width:1.0;" x1="204.2822" x2="246.2822" y1="368.6094" y2="368.6094"/><line style="stroke:#454645;stroke-width:1.0;" x1="246.2822" x2="246.2822" y1="368.6094" y2="381.6094"/><line style="stroke:#454645;stroke-width:1.0;" x1="205.2822" x2="246.2822" y1="381.6094" y2="381.6094"/><polygon fill="#454645" points="215.2822,377.6094,205.2822,381.6094,215.2822,385.6094" style="stroke:#454645;stroke-width:1.0;"/><text fill="#000000" font-family="sans-serif" font-size="13" lengthAdjust="spacing" textLength="133.6943" x="211.2822" y="363.7529">Validate export request</text><path d="M23.5,396.6094 L80.1709,396.6094 L80.1709,404.9609 L70.1709,414.9609 L20,414.9609 L20,400.1094 A3.5,3.5 0 0 1 23.5,396.6094 " fill="#EEEEEE" style="stroke:#454645;stroke-width:1.5;"/><rect fill="none" height="125.2422" rx="3.5" ry="3.5" style="stroke:#454645;stroke-width:1.0;" width="387.5903" x="20" y="396.6094"/><text fill="#454645" font-family="sans-serif" font-size="13" font-weight="bold" lengthAdjust="spacing" textLength="15.1709" x="35" y="411.1045">alt</text><text fill="#454645" font-family="sans-serif" font-size="11" font-weight="bold" lengthAdjust="spacing" textLength="75.1846" x="95.1709" y="410.0283">[request valid]</text><polygon fill="#454645" points="354.9766,433.3125,364.9766,437.3125,354.9766,441.3125" style="stroke:#454645;stroke-width:1.0;"/><line style="stroke:#454645;stroke-width:1.0;" x1="204.2822" x2="360.9766" y1="437.3125" y2="437.3125"/><text fill="#000000" font-family="sans-serif" font-size="13" lengthAdjust="spacing" textLength="89.6035" x="211.2822" y="432.4561">Export Request</text><polygon fill="#454645" points="96.1343,463.6641,86.1343,467.6641,96.1343,471.6641" style="stroke:#454645;stroke-width:1.0;"/><line style="stroke:#454645;stroke-width:1.0;" x1="90.1343" x2="193.2822" y1="467.6641" y2="467.6641"/><text fill="#000000" font-family="sans-serif" font-size="13" lengthAdjust="spacing" textLength="16.6118" x="102.1343" y="462.8076">Ok</text><line style="stroke:#454645;stroke-width:1.0;stroke-dasharray:2.0,2.0;" x1="20" x2="407.5903" y1="476.6641" y2="476.6641"/><text fill="#454645" font-family="sans-serif" font-size="11" font-weight="bold" lengthAdjust="spacing" textLength="84.96" x="25" y="488.083">[request invalid]</text><polygon fill="#454645" points="96.1343,509.8516,86.1343,513.8516,96.1343,517.8516" style="stroke:#454645;stroke-width:1.0;"/><line style="stroke:#454645;stroke-width:1.0;" x1="90.1343" x2="193.2822" y1="513.8516" y2="513.8516"/><text fill="#000000" font-family="sans-serif" font-size="13" lengthAdjust="spacing" textLength="70.1035" x="102.1343" y="508.9951">Bad request</text><polygon fill="#454645" points="514.0991,582.2031,524.0991,586.2031,514.0991,590.2031" style="stroke:#454645;stroke-width:1.0;"/><line style="stroke:#454645;stroke-width:1.0;" x1="366.9766" x2="520.0991" y1="586.2031" y2="586.2031"/><text fill="#000000" font-family="sans-serif" font-size="13" lengthAdjust="spacing" textLength="84.5444" x="373.9766" y="581.3467">Export request</text><polygon fill="#454645" points="614.7334,612.5547,624.7334,616.5547,614.7334,620.5547" style="stroke:#454645;stroke-width:1.0;"/><line style="stroke:#454645;stroke-width:1.0;" x1="536.0991" x2="620.7334" y1="616.5547" y2="616.5547"/><text fill="#000000" font-family="sans-serif" font-size="13" lengthAdjust="spacing" textLength="49.8672" x="543.0991" y="611.6982">Get data</text><polygon fill="#454645" points="547.0991,642.9063,537.0991,646.9063,547.0991,650.9063" style="stroke:#454645;stroke-width:1.0;"/><line style="stroke:#454645;stroke-width:1.0;stroke-dasharray:2.0,2.0;" x1="541.0991" x2="630.7334" y1="646.9063" y2="646.9063"/><text fill="#000000" font-family="sans-serif" font-size="13" lengthAdjust="spacing" textLength="58.5381" x="553.0991" y="642.0498">Response</text><polygon fill="#454645" points="711.4883,673.2578,721.4883,677.2578,711.4883,681.2578" style="stroke:#454645;stroke-width:1.0;"/><line style="stroke:#454645;stroke-width:1.0;" x1="536.0991" x2="717.4883" y1="677.2578" y2="677.2578"/><text fill="#000000" font-family="sans-serif" font-size="13" lengthAdjust="spacing" textLength="66.4854" x="543.0991" y="672.4014">Export data</text><line style="stroke:#454645;stroke-width:1.0;" x1="733.4883" x2="775.4883" y1="707.6094" y2="707.6094"/><line style="stroke:#454645;stroke-width:1.0;" x1="775.4883" x2="775.4883" y1="707.6094" y2="720.6094"/><line style="stroke:#454645;stroke-width:1.0;" x1="734.4883" x2="775.4883" y1="720.6094" y2="720.6094"/><polygon fill="#454645" points="744.4883,716.6094,734.4883,720.6094,744.4883,724.6094" style="stroke:#454645;stroke-width:1.0;"/><text fill="#000000" font-family="sans-serif" font-size="13" lengthAdjust="spacing" textLength="59.9854" x="740.4883" y="702.7529">Store data</text><polygon fill="#454645" points="855.6602,746.9609,865.6602,750.9609,855.6602,754.9609" style="stroke:#454645;stroke-width:1.0;"/><line style="stroke:#454645;stroke-width:1.0;" x1="733.4883" x2="861.6602" y1="750.9609" y2="750.9609"/><text fill="#000000" font-family="sans-serif" font-size="13" lengthAdjust="spacing" textLength="108.4053" x="740.4883" y="746.1045">Log export request</text><polygon fill="#454645" points="965.1597,777.3125,975.1597,781.3125,965.1597,785.3125" style="stroke:#454645;stroke-width:1.0;"/><line style="stroke:#454645;stroke-width:1.0;" x1="867.6602" x2="971.1597" y1="781.3125" y2="781.3125"/><text fill="#000000" font-family="sans-serif" font-size="13" lengthAdjust="spacing" textLength="59.9854" x="874.6602" y="776.4561">Store data</text><polygon fill="#454645" points="547.0991,807.6641,537.0991,811.6641,547.0991,815.6641" style="stroke:#454645;stroke-width:1.0;"/><line style="stroke:#454645;stroke-width:1.0;stroke-dasharray:2.0,2.0;" x1="541.0991" x2="727.4883" y1="811.6641" y2="811.6641"/><text fill="#000000" font-family="sans-serif" font-size="13" lengthAdjust="spacing" textLength="58.5381" x="553.0991" y="806.8076">Response</text><polygon fill="#454645" points="377.9766,838.0156,367.9766,842.0156,377.9766,846.0156" style="stroke:#454645;stroke-width:1.0;"/><line style="stroke:#454645;stroke-width:1.0;" x1="371.9766" x2="530.0991" y1="842.0156" y2="842.0156"/><text fill="#000000" font-family="sans-serif" font-size="13" lengthAdjust="spacing" textLength="135.1226" x="383.9766" y="837.1592">Remove export request</text><!--SRC=[VLB1Ri8m3BtdAppki3k7II0Obw5jXMtdG3s8I1kM6BR-_UoaxLgOYDIgTTvxzhDzHtii4CXLAXnCUTHU5s3D9rfJuegy9jnL49mrUGSGgBB8Rs-sT2giKdfBpaCwWxU0_dvo8bTeCguSW0uWCSLaCbjpr2N1OEtDReSUChIwYfXrfhvEUC9QPx9yVUbJbXZsCTmXBITP3oIOFcl-StIUOAP9muhBnCYRprPzcDnlT41OiEVlMdqsNNoelBdXqwBYfLBY2uOFNFiOddtE9haLvimIOaTR0ZBSNqOP382n5BNEX2BQOrWWWIHGyfl2OtX4skwRC0nRS8RXwCg0DRZEsqQJhZHe3BLhZzpIqAIKQhdEWq8h5ixQMBqnrb3LBqrKtpNFN7nWNqayrTzm5in_QRCRQHkoARlqX9dgl4s4PHwV7BijLQFHIAcu1CpYwLzPRT6o6efV4SXhqMds7qRM9UxLi95hszb9d619YZUdpTaNavtYfmN5RKkOEfp6-EHsbrtjJl-ITgimITaKbYQGOU7ELrFhUfbalm00]--></g></svg>