<svg xmlns="http://www.w3.org/2000/svg" xmlns:xlink="http://www.w3.org/1999/xlink" contentStyleType="text/css" height="734px" preserveAspectRatio="none" style="width:846px;height:734px;background:#DDDDDD;" version="1.1" viewBox="0 0 846 734" width="846px" zoomAndPan="magnify"><defs/><g><rect fill="#DDDDDD" height="734" style="stroke:none;stroke-width:1.0;" width="846" x="0" y="0"/><rect fill="#FFFFFF" height="544.2969" style="stroke:#454645;stroke-width:1.0;" width="10" x="415.272" y="173.3125"/><rect fill="#FFFFFF" height="91.0547" style="stroke:#454645;stroke-width:1.0;" width="10" x="591.6709" y="229.0156"/><rect fill="#FFFFFF" height="104.0547" style="stroke:#454645;stroke-width:1.0;" width="10" x="692.3223" y="357.4219"/><rect fill="none" height="139.7578" rx="3.5" ry="3.5" style="stroke:#454645;stroke-width:1.0;" width="496.2881" x="343.7549" y="188.3125"/><rect fill="none" height="234.1328" rx="3.5" ry="3.5" style="stroke:#454645;stroke-width:1.0;" width="389.4541" x="117.335" y="476.4766"/><rect fill="none" height="125.2422" rx="3.5" ry="3.5" style="stroke:#454645;stroke-width:1.0;" width="369.4541" x="127.335" y="578.3672"/><line style="stroke:#454645;stroke-width:0.5;" x1="60" x2="60" y1="82.6094" y2="122.9609"/><line style="stroke:#454645;stroke-width:1.0;stroke-dasharray:1.0,4.0;" x1="60" x2="60" y1="122.9609" y2="150.9609"/><line style="stroke:#454645;stroke-width:0.5;" x1="60" x2="60" y1="150.9609" y2="727.6094"/><line style="stroke:#454645;stroke-width:0.5;" x1="167.335" x2="167.335" y1="82.6094" y2="122.9609"/><line style="stroke:#454645;stroke-width:1.0;stroke-dasharray:1.0,4.0;" x1="167.335" x2="167.335" y1="122.9609" y2="150.9609"/><line style="stroke:#454645;stroke-width:0.5;" x1="167.335" x2="167.335" y1="150.9609" y2="727.6094"/><line style="stroke:#454645;stroke-width:0.5;" x1="419.7549" x2="419.7549" y1="82.6094" y2="122.9609"/><line style="stroke:#454645;stroke-width:1.0;stroke-dasharray:1.0,4.0;" x1="419.7549" x2="419.7549" y1="122.9609" y2="150.9609"/><line style="stroke:#454645;stroke-width:0.5;" x1="419.7549" x2="419.7549" y1="150.9609" y2="727.6094"/><line style="stroke:#454645;stroke-width:0.5;" x1="596.1367" x2="596.1367" y1="82.6094" y2="122.9609"/><line style="stroke:#454645;stroke-width:1.0;stroke-dasharray:1.0,4.0;" x1="596.1367" x2="596.1367" y1="122.9609" y2="150.9609"/><line style="stroke:#454645;stroke-width:0.5;" x1="596.1367" x2="596.1367" y1="150.9609" y2="727.6094"/><line style="stroke:#454645;stroke-width:0.5;" x1="697.2051" x2="697.2051" y1="82.6094" y2="122.9609"/><line style="stroke:#454645;stroke-width:1.0;stroke-dasharray:1.0,4.0;" x1="697.2051" x2="697.2051" y1="122.9609" y2="150.9609"/><line style="stroke:#454645;stroke-width:0.5;" x1="697.2051" x2="697.2051" y1="150.9609" y2="727.6094"/><line style="stroke:#454645;stroke-width:0.5;" x1="796.1123" x2="796.1123" y1="82.6094" y2="122.9609"/><line style="stroke:#454645;stroke-width:1.0;stroke-dasharray:1.0,4.0;" x1="796.1123" x2="796.1123" y1="122.9609" y2="150.9609"/><line style="stroke:#454645;stroke-width:0.5;" x1="796.1123" x2="796.1123" y1="150.9609" y2="727.6094"/><text fill="#454645" font-family="sans-serif" font-size="14" lengthAdjust="spacing" textLength="104.2686" x="5" y="79.5332">User/Automation</text><ellipse cx="60.1343" cy="13.5" fill="#454645" rx="8" ry="8" style="stroke:#454645;stroke-width:0.5;"/><path d="M60.1343,21.5 L60.1343,48.5 M47.1343,29.5 L73.1343,29.5 M60.1343,48.5 L47.1343,63.5 M60.1343,48.5 L73.1343,63.5 " fill="none" style="stroke:#454645;stroke-width:0.5;"/><path d="M142.335,55 L193.5625,55 C198.5625,55 198.5625,68.8047 198.5625,68.8047 C198.5625,68.8047 198.5625,82.6094 193.5625,82.6094 L142.335,82.6094 C137.335,82.6094 137.335,68.8047 137.335,68.8047 C137.335,68.8047 137.335,55 142.335,55 " fill="#FF6F61" style="stroke:#454645;stroke-width:1.5;"/><path d="M193.5625,55 C188.5625,55 188.5625,68.8047 188.5625,68.8047 C188.5625,82.6094 193.5625,82.6094 193.5625,82.6094 " fill="none" style="stroke:#454645;stroke-width:1.5;"/><text fill="#FFFFFF" font-family="sans-serif" font-size="14" lengthAdjust="spacing" textLength="41.2275" x="142.335" y="74.5332">AMQP</text><rect fill="#FF6F61" height="31.6094" rx="3.5" ry="3.5" style="stroke:#454645;stroke-width:1.5;" width="133.0342" x="353.7549" y="50"/><text fill="#FFFFFF" font-family="sans-serif" font-size="14" lengthAdjust="spacing" textLength="119.0342" x="360.7549" y="71.5332">Mesh AMQP Relay</text><rect fill="#FF6F61" height="31.6094" rx="3.5" ry="3.5" style="stroke:#454645;stroke-width:1.5;" width="133.0684" x="530.1367" y="50"/><text fill="#FFFFFF" font-family="sans-serif" font-size="14" lengthAdjust="spacing" textLength="119.0684" x="537.1367" y="71.5332">Database Gateway</text><rect fill="#FF6F61" height="31.6094" rx="3.5" ry="3.5" style="stroke:#454645;stroke-width:1.5;" width="48.2344" x="673.2051" y="50"/><text fill="#FFFFFF" font-family="sans-serif" font-size="14" lengthAdjust="spacing" textLength="34.2344" x="680.2051" y="71.5332">Mesh</text><text fill="#454645" font-family="sans-serif" font-size="14" lengthAdjust="spacing" textLength="59.9307" x="764.1123" y="79.5332">Database</text><path d="M779.0776,29 C779.0776,19 797.0776,19 797.0776,19 C797.0776,19 815.0776,19 815.0776,29 L815.0776,55 C815.0776,65 797.0776,65 797.0776,65 C797.0776,65 779.0776,65 779.0776,55 L779.0776,29 " fill="#98DDDE" style="stroke:#454645;stroke-width:1.5;"/><path d="M779.0776,29 C779.0776,39 797.0776,39 797.0776,39 C797.0776,39 815.0776,39 815.0776,29 " fill="none" style="stroke:#454645;stroke-width:1.5;"/><rect fill="#FFFFFF" height="544.2969" style="stroke:#454645;stroke-width:1.0;" width="10" x="415.272" y="173.3125"/><rect fill="#FFFFFF" height="91.0547" style="stroke:#454645;stroke-width:1.0;" width="10" x="591.6709" y="229.0156"/><rect fill="#FFFFFF" height="104.0547" style="stroke:#454645;stroke-width:1.0;" width="10" x="692.3223" y="357.4219"/><polygon fill="#454645" points="155.9487,110.9609,165.9487,114.9609,155.9487,118.9609" style="stroke:#454645;stroke-width:1.0;"/><line style="stroke:#454645;stroke-width:1.0;" x1="60.1343" x2="161.9487" y1="114.9609" y2="114.9609"/><text fill="#000000" font-family="sans-serif" font-size="13" lengthAdjust="spacing" textLength="83.8145" x="67.1343" y="110.1045">Import request</text><polygon fill="#454645" points="403.272,169.3125,413.272,173.3125,403.272,177.3125" style="stroke:#454645;stroke-width:1.0;"/><line style="stroke:#454645;stroke-width:1.0;" x1="167.9487" x2="409.272" y1="173.3125" y2="173.3125"/><text fill="#000000" font-family="sans-serif" font-size="13" lengthAdjust="spacing" textLength="83.8145" x="174.9487" y="168.4561">Import request</text><path d="M347.2549,188.3125 L408.9658,188.3125 L408.9658,196.6641 L398.9658,206.6641 L343.7549,206.6641 L343.7549,191.8125 A3.5,3.5 0 0 1 347.2549,188.3125 " fill="#EEEEEE" style="stroke:#454645;stroke-width:1.5;"/><rect fill="none" height="139.7578" rx="3.5" ry="3.5" style="stroke:#454645;stroke-width:1.0;" width="496.2881" x="343.7549" y="188.3125"/><text fill="#454645" font-family="sans-serif" font-size="13" font-weight="bold" lengthAdjust="spacing" textLength="20.2109" x="358.7549" y="202.8076">opt</text><polygon fill="#454645" points="579.6709,225.0156,589.6709,229.0156,579.6709,233.0156" style="stroke:#454645;stroke-width:1.0;"/><line style="stroke:#454645;stroke-width:1.0;" x1="425.272" x2="585.6709" y1="229.0156" y2="229.0156"/><text fill="#000000" font-family="sans-serif" font-size="13" lengthAdjust="spacing" textLength="147.3989" x="432.272" y="224.1592">Translate receiver/sender</text><polygon fill="#454645" points="785.0776,255.3672,795.0776,259.3672,785.0776,263.3672" style="stroke:#454645;stroke-width:1.0;"/><line style="stroke:#454645;stroke-width:1.0;" x1="601.6709" x2="791.0776" y1="259.3672" y2="259.3672"/><text fill="#000000" font-family="sans-serif" font-size="13" lengthAdjust="spacing" textLength="61.4263" x="608.6709" y="254.5107">Fetch data</text><polygon fill="#454645" points="612.6709,285.7188,602.6709,289.7188,612.6709,293.7188" style="stroke:#454645;stroke-width:1.0;"/><line style="stroke:#454645;stroke-width:1.0;stroke-dasharray:2.0,2.0;" x1="606.6709" x2="796.0776" y1="289.7188" y2="289.7188"/><text fill="#000000" font-family="sans-serif" font-size="13" lengthAdjust="spacing" textLength="58.5381" x="618.6709" y="284.8623">Response</text><polygon fill="#454645" points="436.272,316.0703,426.272,320.0703,436.272,324.0703" style="stroke:#454645;stroke-width:1.0;"/><line style="stroke:#454645;stroke-width:1.0;stroke-dasharray:2.0,2.0;" x1="430.272" x2="595.6709" y1="320.0703" y2="320.0703"/><text fill="#000000" font-family="sans-serif" font-size="13" lengthAdjust="spacing" textLength="58.5381" x="442.272" y="315.2139">Response</text><polygon fill="#454645" points="680.3223,353.4219,690.3223,357.4219,680.3223,361.4219" style="stroke:#454645;stroke-width:1.0;"/><line style="stroke:#454645;stroke-width:1.0;" x1="425.272" x2="686.3223" y1="357.4219" y2="357.4219"/><text fill="#000000" font-family="sans-serif" font-size="13" lengthAdjust="spacing" textLength="83.8145" x="432.272" y="352.5654">Import request</text><line style="stroke:#454645;stroke-width:1.0;" x1="702.3223" x2="744.3223" y1="387.7734" y2="387.7734"/><line style="stroke:#454645;stroke-width:1.0;" x1="744.3223" x2="744.3223" y1="387.7734" y2="400.7734"/><line style="stroke:#454645;stroke-width:1.0;" x1="703.3223" x2="744.3223" y1="400.7734" y2="400.7734"/><polygon fill="#454645" points="713.3223,396.7734,703.3223,400.7734,713.3223,404.7734" style="stroke:#454645;stroke-width:1.0;"/><text fill="#000000" font-family="sans-serif" font-size="13" lengthAdjust="spacing" textLength="65.7554" x="709.3223" y="382.917">Import data</text><polygon fill="#454645" points="785.0776,427.125,795.0776,431.125,785.0776,435.125" style="stroke:#454645;stroke-width:1.0;"/><line style="stroke:#454645;stroke-width:1.0;" x1="702.3223" x2="791.0776" y1="431.125" y2="431.125"/><text fill="#000000" font-family="sans-serif" font-size="13" lengthAdjust="spacing" textLength="61.4199" x="709.3223" y="426.2686">Log import</text><polygon fill="#454645" points="436.272,457.4766,426.272,461.4766,436.272,465.4766" style="stroke:#454645;stroke-width:1.0;"/><line style="stroke:#454645;stroke-width:1.0;stroke-dasharray:2.0,2.0;" x1="430.272" x2="696.3223" y1="461.4766" y2="461.4766"/><text fill="#000000" font-family="sans-serif" font-size="13" lengthAdjust="spacing" textLength="58.5381" x="442.272" y="456.6201">Response</text><path d="M120.835,476.4766 L177.5059,476.4766 L177.5059,484.8281 L167.5059,494.8281 L117.335,494.8281 L117.335,479.9766 A3.5,3.5 0 0 1 120.835,476.4766 " fill="#EEEEEE" style="stroke:#454645;stroke-width:1.5;"/><rect fill="none" height="234.1328" rx="3.5" ry="3.5" style="stroke:#454645;stroke-width:1.0;" width="389.4541" x="117.335" y="476.4766"/><text fill="#454645" font-family="sans-serif" font-size="13" font-weight="bold" lengthAdjust="spacing" textLength="15.1709" x="132.335" y="490.9717">alt</text><text fill="#454645" font-family="sans-serif" font-size="11" font-weight="bold" lengthAdjust="spacing" textLength="50.7515" x="192.5059" y="489.8955">[success]</text><polygon fill="#454645" points="178.9487,513.1797,168.9487,517.1797,178.9487,521.1797" style="stroke:#454645;stroke-width:1.0;"/><line style="stroke:#454645;stroke-width:1.0;" x1="172.9487" x2="414.272" y1="517.1797" y2="517.1797"/><text fill="#000000" font-family="sans-serif" font-size="13" lengthAdjust="spacing" textLength="59.2363" x="184.9487" y="512.3232">Import OK</text><polygon fill="#454645" points="178.9487,543.5313,168.9487,547.5313,178.9487,551.5313" style="stroke:#454645;stroke-width:1.0;"/><line style="stroke:#454645;stroke-width:1.0;" x1="172.9487" x2="414.272" y1="547.5313" y2="547.5313"/><text fill="#000000" font-family="sans-serif" font-size="13" lengthAdjust="spacing" textLength="135.1099" x="184.9487" y="542.6748">Remove import request</text><line style="stroke:#454645;stroke-width:1.0;stroke-dasharray:2.0,2.0;" x1="117.335" x2="506.7891" y1="556.5313" y2="556.5313"/><text fill="#454645" font-family="sans-serif" font-size="11" font-weight="bold" lengthAdjust="spacing" textLength="40.3369" x="122.335" y="567.9502">[failure]</text><path d="M130.835,578.3672 L187.5059,578.3672 L187.5059,586.7188 L177.5059,596.7188 L127.335,596.7188 L127.335,581.8672 A3.5,3.5 0 0 1 130.835,578.3672 " fill="#EEEEEE" style="stroke:#454645;stroke-width:1.5;"/><rect fill="none" height="125.2422" rx="3.5" ry="3.5" style="stroke:#454645;stroke-width:1.0;" width="369.4541" x="127.335" y="578.3672"/><text fill="#454645" font-family="sans-serif" font-size="13" font-weight="bold" lengthAdjust="spacing" textLength="15.1709" x="142.335" y="592.8623">alt</text><text fill="#454645" font-family="sans-serif" font-size="11" font-weight="bold" lengthAdjust="spacing" textLength="97.7969" x="202.5059" y="591.7861">[use failure queue]</text><polygon fill="#454645" points="178.9487,615.0703,168.9487,619.0703,178.9487,623.0703" style="stroke:#454645;stroke-width:1.0;"/><line style="stroke:#454645;stroke-width:1.0;" x1="172.9487" x2="414.272" y1="619.0703" y2="619.0703"/><text fill="#000000" font-family="sans-serif" font-size="13" lengthAdjust="spacing" textLength="179.9561" x="184.9487" y="614.2139">Send message to failure queue</text><polygon fill="#454645" points="178.9487,645.4219,168.9487,649.4219,178.9487,653.4219" style="stroke:#454645;stroke-width:1.0;"/><line style="stroke:#454645;stroke-width:1.0;" x1="172.9487" x2="414.272" y1="649.4219" y2="649.4219"/><text fill="#000000" font-family="sans-serif" font-size="13" lengthAdjust="spacing" textLength="178.4644" x="184.9487" y="644.5654">Reject original import message</text><line style="stroke:#454645;stroke-width:1.0;stroke-dasharray:2.0,2.0;" x1="127.335" x2="496.7891" y1="658.4219" y2="658.4219"/><text fill="#454645" font-family="sans-serif" font-size="11" font-weight="bold" lengthAdjust="spacing" textLength="92.2808" x="132.335" y="669.8408">[no failure queue]</text><polygon fill="#454645" points="178.9487,691.6094,168.9487,695.6094,178.9487,699.6094" style="stroke:#454645;stroke-width:1.0;"/><line style="stroke:#454645;stroke-width:1.0;" x1="172.9487" x2="414.272" y1="695.6094" y2="695.6094"/><text fill="#000000" font-family="sans-serif" font-size="13" lengthAdjust="spacing" textLength="223.3232" x="184.9487" y="690.7529">Release the request back to the queue</text><!--SRC=[XPF1JiCm38RlUGgpwxHntm5fQ08Xc80DnDbaPWjBavAuGtjxxBGTJ4nGgPLgV_R_ntNFU4CL0SUzoLiNQanOWNTlv5sW9ITaMkyXH-zMFu3CUq_oJCvoKtbZq79Cq5w3vqpfVDfmh91T30F031ep7mqrr57J-UE3aMxihAinC0pcb3Sb30lok2zby-dY69eXuojcWcjnzjbHiylhboDCMvbLZyfrA2kqCMe7HXUjt0HkgZecXaJYCBCnu_7Oc98JHZmCXx-PMBEHb1AghyXJmf2z61FAajl963A5bPnSYPQSm1MntO2wap2Cklg9d3hNCMJgu5PvDFgHa5wcrzGZdh1LXjYb3ycYrMVKmbrSWokvBdn2pA1do8srb7ClgYCvTBs_FGulg8exwleU396NgR-XyqsYqhBvVeUo4CTTbd98g4GJrxgMVw4BUYVB49DRku2-L-wAM-NmJmTFkXNo4_I6uHNjLeKrrfResFLUaQovs-dtrRty0W00]--></g></svg>