<svg xmlns="http://www.w3.org/2000/svg" xmlns:xlink="http://www.w3.org/1999/xlink" contentStyleType="text/css" data-diagram-type="SEQUENCE" height="1227px" preserveAspectRatio="none" style="width:893px;height:1227px;background:#DDDDDD;" version="1.1" viewBox="0 0 893 1227" width="893px" zoomAndPan="magnify"><defs/><g><rect fill="#DDDDDD" height="1227" style="stroke:none;stroke-width:1;" width="893" x="0" y="0"/><g><title>Mesh Data Transfer</title><rect fill="#FFFFFF" height="461.8125" style="stroke:#181818;stroke-width:1;" width="10" x="289.7739" y="112.4297"/></g><g><title>Mesh Data Transfer</title><rect fill="#FFFFFF" height="603.6016" style="stroke:#181818;stroke-width:1;" width="10" x="289.7739" y="608.2422"/></g><g><title>Mesh Data Transfer</title><rect fill="#FFFFFF" height="284.4063" style="stroke:#181818;stroke-width:1;" width="10" x="294.7739" y="889.3047"/></g><g><title>Mesh</title><rect fill="#FFFFFF" height="29.1328" style="stroke:#181818;stroke-width:1;" width="10" x="627.4268" y="756.7734"/></g><rect fill="none" height="132.3359" rx="3.5" ry="3.5" style="stroke:#454645;stroke-width:1;" width="577.9175" x="209.0044" y="127.4297"/><rect fill="none" height="293.4766" rx="3.5" ry="3.5" style="stroke:#454645;stroke-width:1;" width="576.8442" x="10" y="273.7656"/><rect fill="none" height="132.3359" rx="3.5" ry="3.5" style="stroke:#454645;stroke-width:1;" width="525.0195" x="20" y="340.0313"/><rect fill="none" height="359.8047" rx="3.5" ry="3.5" style="stroke:#454645;stroke-width:1;" width="587.9175" x="199.0044" y="800.9063"/><rect fill="none" height="116.2031" rx="3.5" ry="3.5" style="stroke:#454645;stroke-width:1;" width="369.6729" x="209.0044" y="980.5703"/><g><title>User.Automation</title><rect fill="#000000" fill-opacity="0.00000" height="492.9453" width="8" x="88.083" y="81.2969"/><line style="stroke:#454645;stroke-width:0.5;stroke-dasharray:5,5;" x1="92" x2="92" y1="81.2969" y2="574.2422"/></g><line style="stroke:#454645;stroke-width:0.5;stroke-dasharray:1,4;" x1="92" x2="92" y1="574.2422" y2="602.2422"/><g><title>User.Automation</title><rect fill="#000000" fill-opacity="0.00000" height="618.6016" width="8" x="88.083" y="602.2422"/><line style="stroke:#454645;stroke-width:0.5;stroke-dasharray:5,5;" x1="92" x2="92" y1="602.2422" y2="1220.8438"/></g><g><title>Mesh Data Transfer</title><rect fill="#000000" fill-opacity="0.00000" height="492.9453" width="8" x="290.7739" y="81.2969"/><line style="stroke:#454645;stroke-width:0.5;stroke-dasharray:5,5;" x1="294.0044" x2="294.0044" y1="81.2969" y2="574.2422"/></g><line style="stroke:#454645;stroke-width:0.5;stroke-dasharray:1,4;" x1="294.0044" x2="294.0044" y1="574.2422" y2="602.2422"/><g><title>Mesh Data Transfer</title><rect fill="#000000" fill-opacity="0.00000" height="618.6016" width="8" x="290.7739" y="602.2422"/><line style="stroke:#454645;stroke-width:0.5;stroke-dasharray:5,5;" x1="294.0044" x2="294.0044" y1="602.2422" y2="1220.8438"/></g><g><title>Mesh</title><rect fill="#000000" fill-opacity="0.00000" height="492.9453" width="8" x="628.4268" y="81.2969"/><line style="stroke:#454645;stroke-width:0.5;stroke-dasharray:5,5;" x1="631.9971" x2="631.9971" y1="81.2969" y2="574.2422"/></g><line style="stroke:#454645;stroke-width:0.5;stroke-dasharray:1,4;" x1="631.9971" x2="631.9971" y1="574.2422" y2="602.2422"/><g><title>Mesh</title><rect fill="#000000" fill-opacity="0.00000" height="618.6016" width="8" x="628.4268" y="602.2422"/><line style="stroke:#454645;stroke-width:0.5;stroke-dasharray:5,5;" x1="631.9971" x2="631.9971" y1="602.2422" y2="1220.8438"/></g><g><title>SMG Database</title><rect fill="#000000" fill-opacity="0.00000" height="492.9453" width="8" x="718.3892" y="81.2969"/><line style="stroke:#454645;stroke-width:0.5;stroke-dasharray:5,5;" x1="721.8564" x2="721.8564" y1="81.2969" y2="574.2422"/></g><line style="stroke:#454645;stroke-width:0.5;stroke-dasharray:1,4;" x1="721.8564" x2="721.8564" y1="574.2422" y2="602.2422"/><g><title>SMG Database</title><rect fill="#000000" fill-opacity="0.00000" height="618.6016" width="8" x="718.3892" y="602.2422"/><line style="stroke:#454645;stroke-width:0.5;stroke-dasharray:5,5;" x1="721.8564" x2="721.8564" y1="602.2422" y2="1220.8438"/></g><g><title>MessageLog</title><rect fill="#000000" fill-opacity="0.00000" height="492.9453" width="8" x="833.2275" y="81.2969"/><line style="stroke:#454645;stroke-width:0.5;stroke-dasharray:5,5;" x1="836.9219" x2="836.9219" y1="81.2969" y2="574.2422"/></g><line style="stroke:#454645;stroke-width:0.5;stroke-dasharray:1,4;" x1="836.9219" x2="836.9219" y1="574.2422" y2="602.2422"/><g><title>MessageLog</title><rect fill="#000000" fill-opacity="0.00000" height="618.6016" width="8" x="833.2275" y="602.2422"/><line style="stroke:#454645;stroke-width:0.5;stroke-dasharray:5,5;" x1="836.9219" x2="836.9219" y1="602.2422" y2="1220.8438"/></g><g class="participant participant-head" data-participant="User"><text fill="#454645" font-family="sans-serif" font-size="14" lengthAdjust="spacing" textLength="118.166" x="30" y="77.9951">User/Automation</text><ellipse cx="92.083" cy="13.5" fill="#454645" rx="8" ry="8" style="stroke:#454645;stroke-width:0.5;"/><path d="M92.083,21.5 L92.083,48.5 M79.083,29.5 L105.083,29.5 M92.083,48.5 L79.083,63.5 M92.083,48.5 L105.083,63.5" fill="none" style="stroke:#454645;stroke-width:0.5;"/></g><g class="participant participant-head" data-participant="MDT"><rect fill="#FF6F61" height="30.2969" rx="3.5" ry="3.5" style="stroke:#454645;stroke-width:1.5;" width="151.5391" x="219.0044" y="50"/><text fill="#FFFFFF" font-family="sans-serif" font-size="14" lengthAdjust="spacing" textLength="137.5391" x="226.0044" y="69.9951">Mesh Data Transfer</text></g><g class="participant participant-head" data-participant="Mesh"><rect fill="#FF6F61" height="30.2969" rx="3.5" ry="3.5" style="stroke:#454645;stroke-width:1.5;" width="50.8594" x="606.9971" y="50"/><text fill="#FFFFFF" font-family="sans-serif" font-size="14" lengthAdjust="spacing" textLength="36.8594" x="613.9971" y="69.9951">Mesh</text></g><g class="participant participant-head" data-participant="DB"><text fill="#454645" font-family="sans-serif" font-size="14" lengthAdjust="spacing" textLength="103.0654" x="667.8564" y="77.9951">SMG Database</text><path d="M704.3892,29 C704.3892,19 722.3892,19 722.3892,19 C722.3892,19 740.3892,19 740.3892,29 L740.3892,55 C740.3892,65 722.3892,65 722.3892,65 C722.3892,65 704.3892,65 704.3892,55 L704.3892,29" fill="#98DDDE" style="stroke:#454645;stroke-width:0.5;"/><path d="M704.3892,29 C704.3892,39 722.3892,39 722.3892,39 C722.3892,39 740.3892,39 740.3892,29" fill="none" style="stroke:#454645;stroke-width:0.5;"/></g><g class="participant participant-head" data-participant="ML"><rect fill="#FF6F61" height="30.2969" rx="3.5" ry="3.5" style="stroke:#454645;stroke-width:1.5;" width="100.6113" x="786.9219" y="50"/><text fill="#FFFFFF" font-family="sans-serif" font-size="14" lengthAdjust="spacing" textLength="86.6113" x="793.9219" y="69.9951">MessageLog</text></g><g><title>Mesh Data Transfer</title><rect fill="#FFFFFF" height="461.8125" style="stroke:#181818;stroke-width:1;" width="10" x="289.7739" y="112.4297"/></g><g><title>Mesh Data Transfer</title><rect fill="#FFFFFF" height="603.6016" style="stroke:#181818;stroke-width:1;" width="10" x="289.7739" y="608.2422"/></g><g><title>Mesh Data Transfer</title><rect fill="#FFFFFF" height="284.4063" style="stroke:#181818;stroke-width:1;" width="10" x="294.7739" y="889.3047"/></g><g><title>Mesh</title><rect fill="#FFFFFF" height="29.1328" style="stroke:#181818;stroke-width:1;" width="10" x="627.4268" y="756.7734"/></g><g class="message" data-participant-1="User" data-participant-2="MDT"><polygon fill="#454645" points="277.7739,108.4297,287.7739,112.4297,277.7739,116.4297" style="stroke:#454645;stroke-width:1;"/><line style="stroke:#454645;stroke-width:1;" x1="92.083" x2="283.7739" y1="112.4297" y2="112.4297"/><text fill="#000000" font-family="sans-serif" font-size="13" lengthAdjust="spacing" textLength="138.3345" x="99.083" y="107.3638">Order(HTTP Request)</text></g><path d="M212.5044,127.4297 L273.4473,127.4297 L273.4473,134.5625 L263.4473,144.5625 L209.0044,144.5625 L209.0044,130.9297 A3.5,3.5 0 0 1 212.5044,127.4297" fill="#EEEEEE" style="stroke:#454645;stroke-width:1.5;"/><rect fill="none" height="132.3359" rx="3.5" ry="3.5" style="stroke:#454645;stroke-width:1;" width="577.9175" x="209.0044" y="127.4297"/><text fill="#454645" font-family="sans-serif" font-size="13" font-weight="bold" lengthAdjust="spacing" textLength="19.4429" x="224.0044" y="140.4966">alt</text><text fill="#454645" font-family="sans-serif" font-size="11" font-weight="bold" lengthAdjust="spacing" textLength="123.5459" x="288.4473" y="139.6401">[time series export]</text><g class="message" data-participant-1="MDT" data-participant-2="DB"><polygon fill="#454645" points="710.3892,161.6953,720.3892,165.6953,710.3892,169.6953" style="stroke:#454645;stroke-width:1;"/><line style="stroke:#454645;stroke-width:1;" x1="299.7739" x2="716.3892" y1="165.6953" y2="165.6953"/><text fill="#000000" font-family="sans-serif" font-size="13" lengthAdjust="spacing" textLength="56.583" x="306.7739" y="160.6294">Get data</text></g><g class="message" data-participant-1="DB" data-participant-2="MDT"><polygon fill="#454645" points="310.7739,190.8281,300.7739,194.8281,310.7739,198.8281" style="stroke:#454645;stroke-width:1;"/><line style="stroke:#454645;stroke-width:1;stroke-dasharray:2,2;" x1="304.7739" x2="721.3892" y1="194.8281" y2="194.8281"/><text fill="#000000" font-family="sans-serif" font-size="13" lengthAdjust="spacing" textLength="63.0195" x="316.7739" y="189.7622">Response</text></g><line style="stroke:#454645;stroke-width:1;stroke-dasharray:2,2;" x1="209.0044" x2="786.9219" y1="203.8281" y2="203.8281"/><text fill="#454645" font-family="sans-serif" font-size="11" font-weight="bold" lengthAdjust="spacing" textLength="123.1484" x="214.0044" y="214.0386">[availability export]</text><g class="message" data-participant-1="MDT" data-participant-2="MDT"><line style="stroke:#454645;stroke-width:1;" x1="299.7739" x2="341.7739" y1="238.7656" y2="238.7656"/><line style="stroke:#454645;stroke-width:1;" x1="341.7739" x2="341.7739" y1="238.7656" y2="251.7656"/><line style="stroke:#454645;stroke-width:1;" x1="300.7739" x2="341.7739" y1="251.7656" y2="251.7656"/><polygon fill="#454645" points="310.7739,247.7656,300.7739,251.7656,310.7739,255.7656" style="stroke:#454645;stroke-width:1;"/><text fill="#000000" font-family="sans-serif" font-size="13" lengthAdjust="spacing" textLength="153.7021" x="306.7739" y="233.6997">Validate export request</text></g><path d="M13.5,273.7656 L74.4429,273.7656 L74.4429,280.8984 L64.4429,290.8984 L10,290.8984 L10,277.2656 A3.5,3.5 0 0 1 13.5,273.7656" fill="#EEEEEE" style="stroke:#454645;stroke-width:1.5;"/><rect fill="none" height="293.4766" rx="3.5" ry="3.5" style="stroke:#454645;stroke-width:1;" width="576.8442" x="10" y="273.7656"/><text fill="#454645" font-family="sans-serif" font-size="13" font-weight="bold" lengthAdjust="spacing" textLength="19.4429" x="25" y="286.8325">alt</text><text fill="#454645" font-family="sans-serif" font-size="11" font-weight="bold" lengthAdjust="spacing" textLength="316.3574" x="89.4429" y="285.9761">[time series data found / availability request valid]</text><g class="message" data-participant-1="MDT" data-participant-2="MDT"><line style="stroke:#454645;stroke-width:1;" x1="299.7739" x2="341.7739" y1="312.0313" y2="312.0313"/><line style="stroke:#454645;stroke-width:1;" x1="341.7739" x2="341.7739" y1="312.0313" y2="325.0313"/><line style="stroke:#454645;stroke-width:1;" x1="300.7739" x2="341.7739" y1="325.0313" y2="325.0313"/><polygon fill="#454645" points="310.7739,321.0313,300.7739,325.0313,310.7739,329.0313" style="stroke:#454645;stroke-width:1;"/><text fill="#000000" font-family="sans-serif" font-size="13" lengthAdjust="spacing" textLength="258.0703" x="306.7739" y="306.9653">Add request to internal message queue</text></g><path d="M23.5,340.0313 L84.4429,340.0313 L84.4429,347.1641 L74.4429,357.1641 L20,357.1641 L20,343.5313 A3.5,3.5 0 0 1 23.5,340.0313" fill="#EEEEEE" style="stroke:#454645;stroke-width:1.5;"/><rect fill="none" height="132.3359" rx="3.5" ry="3.5" style="stroke:#454645;stroke-width:1;" width="525.0195" x="20" y="340.0313"/><text fill="#454645" font-family="sans-serif" font-size="13" font-weight="bold" lengthAdjust="spacing" textLength="19.4429" x="35" y="353.0981">alt</text><text fill="#454645" font-family="sans-serif" font-size="11" font-weight="bold" lengthAdjust="spacing" textLength="190.4751" x="99.4429" y="352.2417">[message added to the queue]</text><g class="message" data-participant-1="MDT" data-participant-2="MDT"><line style="stroke:#454645;stroke-width:1;" x1="299.7739" x2="341.7739" y1="378.2969" y2="378.2969"/><line style="stroke:#454645;stroke-width:1;" x1="341.7739" x2="341.7739" y1="378.2969" y2="391.2969"/><line style="stroke:#454645;stroke-width:1;" x1="300.7739" x2="341.7739" y1="391.2969" y2="391.2969"/><polygon fill="#454645" points="310.7739,387.2969,300.7739,391.2969,310.7739,395.2969" style="stroke:#454645;stroke-width:1;"/><text fill="#000000" font-family="sans-serif" font-size="13" lengthAdjust="spacing" textLength="216.2456" x="306.7739" y="373.231">Add new export status: Accepted</text></g><g class="message" data-participant-1="MDT" data-participant-2="User"><polygon fill="#454645" points="103.083,416.4297,93.083,420.4297,103.083,424.4297" style="stroke:#454645;stroke-width:1;"/><line style="stroke:#454645;stroke-width:1;" x1="97.083" x2="288.7739" y1="420.4297" y2="420.4297"/><text fill="#000000" font-family="sans-serif" font-size="13" lengthAdjust="spacing" textLength="173.6909" x="109.083" y="415.3638">Accepted: export status ID</text></g><line style="stroke:#454645;stroke-width:1;stroke-dasharray:2,2;" x1="20" x2="545.0195" y1="429.4297" y2="429.4297"/><text fill="#454645" font-family="sans-serif" font-size="11" font-weight="bold" lengthAdjust="spacing" textLength="316.6582" x="25" y="439.6401">[failed to queue the message: capacity exceeded?]</text><g class="message" data-participant-1="MDT" data-participant-2="User"><polygon fill="#454645" points="103.083,460.3672,93.083,464.3672,103.083,468.3672" style="stroke:#454645;stroke-width:1;"/><line style="stroke:#454645;stroke-width:1;" x1="97.083" x2="288.7739" y1="464.3672" y2="464.3672"/><text fill="#000000" font-family="sans-serif" font-size="13" lengthAdjust="spacing" textLength="127.334" x="109.083" y="459.3013">Service unavailable</text></g><line style="stroke:#454645;stroke-width:1;stroke-dasharray:2,2;" x1="10" x2="586.8442" y1="480.3672" y2="480.3672"/><text fill="#454645" font-family="sans-serif" font-size="11" font-weight="bold" lengthAdjust="spacing" textLength="169.7803" x="15" y="490.5776">[no time series data found]</text><g class="message" data-participant-1="MDT" data-participant-2="User"><polygon fill="#454645" points="103.083,511.3047,93.083,515.3047,103.083,519.3047" style="stroke:#454645;stroke-width:1;"/><line style="stroke:#454645;stroke-width:1;" x1="97.083" x2="288.7739" y1="515.3047" y2="515.3047"/><text fill="#000000" font-family="sans-serif" font-size="13" lengthAdjust="spacing" textLength="71.5825" x="109.083" y="510.2388">No content</text></g><line style="stroke:#454645;stroke-width:1;stroke-dasharray:2,2;" x1="10" x2="586.8442" y1="524.3047" y2="524.3047"/><text fill="#454645" font-family="sans-serif" font-size="11" font-weight="bold" lengthAdjust="spacing" textLength="179.5449" x="15" y="534.5151">[avalilability request invalid]</text><g class="message" data-participant-1="MDT" data-participant-2="User"><polygon fill="#454645" points="103.083,555.2422,93.083,559.2422,103.083,563.2422" style="stroke:#454645;stroke-width:1;"/><line style="stroke:#454645;stroke-width:1;" x1="97.083" x2="288.7739" y1="559.2422" y2="559.2422"/><text fill="#000000" font-family="sans-serif" font-size="13" lengthAdjust="spacing" textLength="78.9712" x="109.083" y="554.1763">Bad request</text></g><path d="M186,624.7422 L186,642.7422 A3.5,3.5 0 0 0 189.5,646.2422 L397.5,646.2422 A3.5,3.5 0 0 0 401,642.7422 L401,631.2422 L391,621.2422 L189.5,621.2422 A3.5,3.5 0 0 0 186,624.7422" fill="#90EE90" style="stroke:#454645;stroke-width:1;"/><path d="M391,621.2422 L391,629.4922 A1.75,1.75 0 0 0 392.75,631.2422 L401,631.2422 L391,621.2422" fill="#90EE90" style="stroke:#454645;stroke-width:1;"/><text fill="#454645" font-family="sans-serif" font-size="13" lengthAdjust="spacing" textLength="194.6699" x="192" y="638.3091">Handle next queued message</text><g class="message" data-participant-1="MDT" data-participant-2="MDT"><line style="stroke:#454645;stroke-width:1;" x1="299.7739" x2="341.7739" y1="672.5078" y2="672.5078"/><line style="stroke:#454645;stroke-width:1;" x1="341.7739" x2="341.7739" y1="672.5078" y2="685.5078"/><line style="stroke:#454645;stroke-width:1;" x1="300.7739" x2="341.7739" y1="685.5078" y2="685.5078"/><polygon fill="#454645" points="310.7739,681.5078,300.7739,685.5078,310.7739,689.5078" style="stroke:#454645;stroke-width:1;"/><text fill="#000000" font-family="sans-serif" font-size="13" lengthAdjust="spacing" textLength="237.6372" x="306.7739" y="667.4419">Remove the request from the queue</text></g><g class="message" data-participant-1="MDT" data-participant-2="MDT"><line style="stroke:#454645;stroke-width:1;" x1="299.7739" x2="341.7739" y1="714.6406" y2="714.6406"/><line style="stroke:#454645;stroke-width:1;" x1="341.7739" x2="341.7739" y1="714.6406" y2="727.6406"/><line style="stroke:#454645;stroke-width:1;" x1="300.7739" x2="341.7739" y1="727.6406" y2="727.6406"/><polygon fill="#454645" points="310.7739,723.6406,300.7739,727.6406,310.7739,731.6406" style="stroke:#454645;stroke-width:1;"/><text fill="#000000" font-family="sans-serif" font-size="13" lengthAdjust="spacing" textLength="266.7349" x="306.7739" y="709.5747">Update export status: Processing started</text></g><g class="message" data-participant-1="MDT" data-participant-2="Mesh"><polygon fill="#454645" points="615.4268,752.7734,625.4268,756.7734,615.4268,760.7734" style="stroke:#454645;stroke-width:1;"/><line style="stroke:#454645;stroke-width:1;" x1="299.7739" x2="621.4268" y1="756.7734" y2="756.7734"/><text fill="#000000" font-family="sans-serif" font-size="13" lengthAdjust="spacing" textLength="56.583" x="306.7739" y="751.7075">Get data</text></g><g class="message" data-participant-1="Mesh" data-participant-2="MDT"><polygon fill="#454645" points="310.7739,781.9063,300.7739,785.9063,310.7739,789.9063" style="stroke:#454645;stroke-width:1;"/><line style="stroke:#454645;stroke-width:1;stroke-dasharray:2,2;" x1="304.7739" x2="631.4268" y1="785.9063" y2="785.9063"/><text fill="#000000" font-family="sans-serif" font-size="13" lengthAdjust="spacing" textLength="63.0195" x="316.7739" y="780.8403">Response</text></g><path d="M202.5044,800.9063 L263.4473,800.9063 L263.4473,808.0391 L253.4473,818.0391 L199.0044,818.0391 L199.0044,804.4063 A3.5,3.5 0 0 1 202.5044,800.9063" fill="#EEEEEE" style="stroke:#454645;stroke-width:1.5;"/><rect fill="none" height="359.8047" rx="3.5" ry="3.5" style="stroke:#454645;stroke-width:1;" width="587.9175" x="199.0044" y="800.9063"/><text fill="#454645" font-family="sans-serif" font-size="13" font-weight="bold" lengthAdjust="spacing" textLength="19.4429" x="214.0044" y="813.9731">alt</text><text fill="#454645" font-family="sans-serif" font-size="11" font-weight="bold" lengthAdjust="spacing" textLength="89.0527" x="278.4473" y="813.1167">[data fetched]</text><g class="message" data-participant-1="MDT" data-participant-2="MDT"><line style="stroke:#454645;stroke-width:1;" x1="299.7739" x2="341.7739" y1="839.1719" y2="839.1719"/><line style="stroke:#454645;stroke-width:1;" x1="341.7739" x2="341.7739" y1="839.1719" y2="852.1719"/><line style="stroke:#454645;stroke-width:1;" x1="300.7739" x2="341.7739" y1="852.1719" y2="852.1719"/><polygon fill="#454645" points="310.7739,848.1719,300.7739,852.1719,310.7739,856.1719" style="stroke:#454645;stroke-width:1;"/><text fill="#000000" font-family="sans-serif" font-size="13" lengthAdjust="spacing" textLength="303.6528" x="306.7739" y="834.106">Update export status: Data fetched from Mesh</text></g><g class="message" data-participant-1="MDT" data-participant-2="MDT"><line style="stroke:#454645;stroke-width:1;" x1="299.7739" x2="346.7739" y1="876.3047" y2="876.3047"/><line style="stroke:#454645;stroke-width:1;" x1="346.7739" x2="346.7739" y1="876.3047" y2="889.3047"/><line style="stroke:#454645;stroke-width:1;" x1="305.7739" x2="346.7739" y1="889.3047" y2="889.3047"/><polygon fill="#454645" points="315.7739,885.3047,305.7739,889.3047,315.7739,893.3047" style="stroke:#454645;stroke-width:1;"/><text fill="#000000" font-family="sans-serif" font-size="13" lengthAdjust="spacing" textLength="75.9688" x="311.7739" y="871.2388">Export data</text></g><g class="message" data-participant-1="MDT" data-participant-2="MDT"><line style="stroke:#454645;stroke-width:1;" x1="304.7739" x2="346.7739" y1="923.4375" y2="923.4375"/><line style="stroke:#454645;stroke-width:1;" x1="346.7739" x2="346.7739" y1="923.4375" y2="936.4375"/><line style="stroke:#454645;stroke-width:1;" x1="305.7739" x2="346.7739" y1="936.4375" y2="936.4375"/><polygon fill="#454645" points="315.7739,932.4375,305.7739,936.4375,315.7739,940.4375" style="stroke:#454645;stroke-width:1;"/><text fill="#000000" font-family="sans-serif" font-size="13" lengthAdjust="spacing" textLength="68.0596" x="311.7739" y="918.3716">Store data</text></g><g class="message" data-participant-1="MDT" data-participant-2="DB"><polygon fill="#454645" points="710.3892,961.5703,720.3892,965.5703,710.3892,969.5703" style="stroke:#454645;stroke-width:1;"/><line style="stroke:#454645;stroke-width:1;" x1="304.7739" x2="716.3892" y1="965.5703" y2="965.5703"/><text fill="#000000" font-family="sans-serif" font-size="13" lengthAdjust="spacing" textLength="136.5825" x="311.7739" y="960.5044">Log the export result</text></g><path d="M212.5044,980.5703 L273.4473,980.5703 L273.4473,987.7031 L263.4473,997.7031 L209.0044,997.7031 L209.0044,984.0703 A3.5,3.5 0 0 1 212.5044,980.5703" fill="#EEEEEE" style="stroke:#454645;stroke-width:1.5;"/><rect fill="none" height="116.2031" rx="3.5" ry="3.5" style="stroke:#454645;stroke-width:1;" width="369.6729" x="209.0044" y="980.5703"/><text fill="#454645" font-family="sans-serif" font-size="13" font-weight="bold" lengthAdjust="spacing" textLength="19.4429" x="224.0044" y="993.6372">alt</text><text fill="#454645" font-family="sans-serif" font-size="11" font-weight="bold" lengthAdjust="spacing" textLength="58.0293" x="288.4473" y="992.7808">[success]</text><g class="message" data-participant-1="MDT" data-participant-2="MDT"><line style="stroke:#454645;stroke-width:1;" x1="304.7739" x2="346.7739" y1="1018.8359" y2="1018.8359"/><line style="stroke:#454645;stroke-width:1;" x1="346.7739" x2="346.7739" y1="1018.8359" y2="1031.8359"/><line style="stroke:#454645;stroke-width:1;" x1="305.7739" x2="346.7739" y1="1031.8359" y2="1031.8359"/><polygon fill="#454645" points="315.7739,1027.8359,305.7739,1031.8359,315.7739,1035.8359" style="stroke:#454645;stroke-width:1;"/><text fill="#000000" font-family="sans-serif" font-size="13" lengthAdjust="spacing" textLength="239.9033" x="311.7739" y="1013.77">Update export status: Data exported</text></g><line style="stroke:#454645;stroke-width:1;stroke-dasharray:2,2;" x1="209.0044" x2="578.6772" y1="1040.8359" y2="1040.8359"/><text fill="#454645" font-family="sans-serif" font-size="11" font-weight="bold" lengthAdjust="spacing" textLength="50.5205" x="214.0044" y="1051.0464">[failure]</text><g class="message" data-participant-1="MDT" data-participant-2="MDT"><line style="stroke:#454645;stroke-width:1;" x1="304.7739" x2="346.7739" y1="1075.7734" y2="1075.7734"/><line style="stroke:#454645;stroke-width:1;" x1="346.7739" x2="346.7739" y1="1075.7734" y2="1088.7734"/><line style="stroke:#454645;stroke-width:1;" x1="305.7739" x2="346.7739" y1="1088.7734" y2="1088.7734"/><polygon fill="#454645" points="315.7739,1084.7734,305.7739,1088.7734,315.7739,1092.7734" style="stroke:#454645;stroke-width:1;"/><text fill="#000000" font-family="sans-serif" font-size="13" lengthAdjust="spacing" textLength="185.0596" x="311.7739" y="1070.7075">Update export status: Failed</text></g><line style="stroke:#454645;stroke-width:1;stroke-dasharray:2,2;" x1="199.0044" x2="786.9219" y1="1104.7734" y2="1104.7734"/><text fill="#454645" font-family="sans-serif" font-size="11" font-weight="bold" lengthAdjust="spacing" textLength="198.9507" x="204.0044" y="1114.9839">[failed to fetch data from Mesh]</text><g class="message" data-participant-1="MDT" data-participant-2="MDT"><line style="stroke:#454645;stroke-width:1;" x1="304.7739" x2="346.7739" y1="1139.7109" y2="1139.7109"/><line style="stroke:#454645;stroke-width:1;" x1="346.7739" x2="346.7739" y1="1139.7109" y2="1152.7109"/><line style="stroke:#454645;stroke-width:1;" x1="305.7739" x2="346.7739" y1="1152.7109" y2="1152.7109"/><polygon fill="#454645" points="315.7739,1148.7109,305.7739,1152.7109,315.7739,1156.7109" style="stroke:#454645;stroke-width:1;"/><text fill="#000000" font-family="sans-serif" font-size="13" lengthAdjust="spacing" textLength="185.0596" x="311.7739" y="1134.645">Update export status: Failed</text></g><g class="message" data-participant-1="ML" data-participant-2="DB"><polygon fill="#454645" points="733.3892,1198.8438,723.3892,1202.8438,733.3892,1206.8438" style="stroke:#454645;stroke-width:1;"/><line style="stroke:#454645;stroke-width:1;" x1="727.3892" x2="836.2275" y1="1202.8438" y2="1202.8438"/><text fill="#000000" font-family="sans-serif" font-size="13" lengthAdjust="spacing" textLength="63.9717" x="739.3892" y="1197.7778">Read logs</text></g><!--SRC=[ZLJ1Rjim3BthAxXUjY5mU_TXGmDlxO2cAvAqbs47LQ8JORBaINBM_FqeoOxjjXkQGmuKt-FZ8-btOOyDGh17vdyfqtB76z2gHgqCReBZ0NT7y5OhEKdmuQYH_fqIeMiqOrm4wo3_pkuzkelBBjY61sND6N0FCSO879HGBJS1pbRezr3nm67hkF4rkfIughQpl9Z69AKzSe-9VhEwIhWOI91g-HpX-Gvlx2xntJ0MYqFnAN8l5YLyTnBTX-ljzWxM-Bj37puohWC4HKvGga8F-DHQ5nWX8h1Qbd250Q8ELYsXo6GbuNrhZKV6K9CyVk1AyqUbLJW-eqZf3vny94lxDt2vF4CZNoY8jQ2sdP5mCIVkKN28R3F-IobFhy62CW6TuHgQR0dGIuUfqX3XKgACkRG7_VDpGeD_1hq-yD1v2Wk1RS1JyMZm62tdwV2jokxKr4CkbWgbahsE4WHlkSYs2KGIzNbEla5tK0AXCxqN6fDjYTdOVrWtvxYr82nvOi9fNFgbhShCZCtG9PUpQKcabLU7ECkuiOoTdvypzXxsYWmr9tkLJoZbg6-VJVQewq9mhK5QqcfiyedSUiJQEeJjEg86TjalxuzC_7DOOdPhgRGzq5iQr3KtaaxIu5F8xif1msoUQsm8atGCxTREDgzE7qguRwVREap_pbb1tChiil9n3-AnBXOmEPPqvVsv50LCBYPkOHuK1h57-PRArIG_2q-VXn6PYd_9e5n_Ihe9qU1fd6wvXFYbY0QSZj9tEYHzlXEnqvc5_r6MOoZ7TUySlW7yDHt6kCxZeQHUUvjUQVSDX2bvt9wuJKLHChQwwRzhQwJLrdRd_m80]--></g></svg>
