<svg xmlns="http://www.w3.org/2000/svg" xmlns:xlink="http://www.w3.org/1999/xlink" contentStyleType="text/css" data-diagram-type="SEQUENCE" height="680px" preserveAspectRatio="none" style="width:964px;height:680px;background:#DDDDDD;" version="1.1" viewBox="0 0 964 680" width="964px" zoomAndPan="magnify"><defs/><g><rect fill="#DDDDDD" height="680" style="stroke:none;stroke-width:1;" width="964" x="0" y="0"/><g><title>Mesh Data Transfer</title><rect fill="#FFFFFF" height="493.6016" style="stroke:#181818;stroke-width:1;" width="10" x="512.5884" y="169.5625"/></g><g><title>Mesh</title><rect fill="#FFFFFF" height="100.3984" style="stroke:#181818;stroke-width:1;" width="10" x="638.5679" y="288.0938"/></g><rect fill="none" height="75.3984" rx="3.5" ry="3.5" style="stroke:#454645;stroke-width:1;" width="426.0103" x="431.8188" y="184.5625"/><rect fill="none" height="223.5391" rx="3.5" ry="3.5" style="stroke:#454645;stroke-width:1;" width="494.1919" x="119.166" y="432.625"/><rect fill="none" height="119.3359" rx="3.5" ry="3.5" style="stroke:#454645;stroke-width:1;" width="474.1919" x="129.166" y="529.8281"/><g><title>User.Automation</title><rect fill="#000000" fill-opacity="0.00000" height="39.1328" width="8" x="63.083" y="81.2969"/><line style="stroke:#454645;stroke-width:0.5;stroke-dasharray:5,5;" x1="67" x2="67" y1="81.2969" y2="120.4297"/></g><line style="stroke:#454645;stroke-width:0.5;stroke-dasharray:1,4;" x1="67" x2="67" y1="120.4297" y2="148.4297"/><g><title>User.Automation</title><rect fill="#000000" fill-opacity="0.00000" height="524.7344" width="8" x="63.083" y="148.4297"/><line style="stroke:#454645;stroke-width:0.5;stroke-dasharray:5,5;" x1="67" x2="67" y1="148.4297" y2="673.1641"/></g><g><title>AMQP.Azure Service Bus</title><rect fill="#000000" fill-opacity="0.00000" height="39.1328" width="8" x="231.374" y="81.2969"/><line style="stroke:#454645;stroke-width:0.5;stroke-dasharray:5,5;" x1="235.166" x2="235.166" y1="81.2969" y2="120.4297"/></g><line style="stroke:#454645;stroke-width:0.5;stroke-dasharray:1,4;" x1="235.166" x2="235.166" y1="120.4297" y2="148.4297"/><g><title>AMQP.Azure Service Bus</title><rect fill="#000000" fill-opacity="0.00000" height="524.7344" width="8" x="231.374" y="148.4297"/><line style="stroke:#454645;stroke-width:0.5;stroke-dasharray:5,5;" x1="235.166" x2="235.166" y1="148.4297" y2="673.1641"/></g><g><title>Mesh Data Transfer</title><rect fill="#000000" fill-opacity="0.00000" height="39.1328" width="8" x="513.5884" y="81.2969"/><line style="stroke:#454645;stroke-width:0.5;stroke-dasharray:5,5;" x1="516.8188" x2="516.8188" y1="81.2969" y2="120.4297"/></g><line style="stroke:#454645;stroke-width:0.5;stroke-dasharray:1,4;" x1="516.8188" x2="516.8188" y1="120.4297" y2="148.4297"/><g><title>Mesh Data Transfer</title><rect fill="#000000" fill-opacity="0.00000" height="524.7344" width="8" x="513.5884" y="148.4297"/><line style="stroke:#454645;stroke-width:0.5;stroke-dasharray:5,5;" x1="516.8188" x2="516.8188" y1="148.4297" y2="673.1641"/></g><g><title>Mesh</title><rect fill="#000000" fill-opacity="0.00000" height="39.1328" width="8" x="639.5679" y="81.2969"/><line style="stroke:#454645;stroke-width:0.5;stroke-dasharray:5,5;" x1="643.1382" x2="643.1382" y1="81.2969" y2="120.4297"/></g><line style="stroke:#454645;stroke-width:0.5;stroke-dasharray:1,4;" x1="643.1382" x2="643.1382" y1="120.4297" y2="148.4297"/><g><title>Mesh</title><rect fill="#000000" fill-opacity="0.00000" height="524.7344" width="8" x="639.5679" y="148.4297"/><line style="stroke:#454645;stroke-width:0.5;stroke-dasharray:5,5;" x1="643.1382" x2="643.1382" y1="148.4297" y2="673.1641"/></g><g><title>SMG Database</title><rect fill="#000000" fill-opacity="0.00000" height="39.1328" width="8" x="789.2964" y="81.2969"/><line style="stroke:#454645;stroke-width:0.5;stroke-dasharray:5,5;" x1="792.7637" x2="792.7637" y1="81.2969" y2="120.4297"/></g><line style="stroke:#454645;stroke-width:0.5;stroke-dasharray:1,4;" x1="792.7637" x2="792.7637" y1="120.4297" y2="148.4297"/><g><title>SMG Database</title><rect fill="#000000" fill-opacity="0.00000" height="524.7344" width="8" x="789.2964" y="148.4297"/><line style="stroke:#454645;stroke-width:0.5;stroke-dasharray:5,5;" x1="792.7637" x2="792.7637" y1="148.4297" y2="673.1641"/></g><g><title>MessageLog</title><rect fill="#000000" fill-opacity="0.00000" height="39.1328" width="8" x="904.1348" y="81.2969"/><line style="stroke:#454645;stroke-width:0.5;stroke-dasharray:5,5;" x1="907.8291" x2="907.8291" y1="81.2969" y2="120.4297"/></g><line style="stroke:#454645;stroke-width:0.5;stroke-dasharray:1,4;" x1="907.8291" x2="907.8291" y1="120.4297" y2="148.4297"/><g><title>MessageLog</title><rect fill="#000000" fill-opacity="0.00000" height="524.7344" width="8" x="904.1348" y="148.4297"/><line style="stroke:#454645;stroke-width:0.5;stroke-dasharray:5,5;" x1="907.8291" x2="907.8291" y1="148.4297" y2="673.1641"/></g><g class="participant participant-head" data-participant="User"><text fill="#454645" font-family="sans-serif" font-size="14" lengthAdjust="spacing" textLength="118.166" x="5" y="77.9951">User/Automation</text><ellipse cx="67.083" cy="13.5" fill="#454645" rx="8" ry="8" style="stroke:#454645;stroke-width:0.5;"/><path d="M67.083,21.5 L67.083,48.5 M54.083,29.5 L80.083,29.5 M67.083,48.5 L54.083,63.5 M67.083,48.5 L80.083,63.5" fill="none" style="stroke:#454645;stroke-width:0.5;"/></g><g class="participant participant-head" data-participant="AMQP"><path d="M144.166,55 L326.582,55 C331.582,55 331.582,68.1484 331.582,68.1484 C331.582,68.1484 331.582,81.2969 326.582,81.2969 L144.166,81.2969 C139.166,81.2969 139.166,68.1484 139.166,68.1484 C139.166,68.1484 139.166,55 144.166,55" fill="#FF6F61" style="stroke:#454645;stroke-width:1.5;"/><path d="M326.582,55 C321.582,55 321.582,68.1484 321.582,68.1484 C321.582,81.2969 326.582,81.2969 326.582,81.2969" fill="none" style="stroke:#454645;stroke-width:1.5;"/><text fill="#FFFFFF" font-family="sans-serif" font-size="14" lengthAdjust="spacing" textLength="172.416" x="144.166" y="72.9951">AMQP/Azure Service Bus</text></g><g class="participant participant-head" data-participant="MAR"><rect fill="#FF6F61" height="30.2969" rx="3.5" ry="3.5" style="stroke:#454645;stroke-width:1.5;" width="151.5391" x="441.8188" y="50"/><text fill="#FFFFFF" font-family="sans-serif" font-size="14" lengthAdjust="spacing" textLength="137.5391" x="448.8188" y="69.9951">Mesh Data Transfer</text></g><g class="participant participant-head" data-participant="Mesh"><rect fill="#FF6F61" height="30.2969" rx="3.5" ry="3.5" style="stroke:#454645;stroke-width:1.5;" width="50.8594" x="618.1382" y="50"/><text fill="#FFFFFF" font-family="sans-serif" font-size="14" lengthAdjust="spacing" textLength="36.8594" x="625.1382" y="69.9951">Mesh</text></g><g class="participant participant-head" data-participant="DB"><text fill="#454645" font-family="sans-serif" font-size="14" lengthAdjust="spacing" textLength="103.0654" x="738.7637" y="77.9951">SMG Database</text><path d="M775.2964,29 C775.2964,19 793.2964,19 793.2964,19 C793.2964,19 811.2964,19 811.2964,29 L811.2964,55 C811.2964,65 793.2964,65 793.2964,65 C793.2964,65 775.2964,65 775.2964,55 L775.2964,29" fill="#98DDDE" style="stroke:#454645;stroke-width:0.5;"/><path d="M775.2964,29 C775.2964,39 793.2964,39 793.2964,39 C793.2964,39 811.2964,39 811.2964,29" fill="none" style="stroke:#454645;stroke-width:0.5;"/></g><g class="participant participant-head" data-participant="ML"><rect fill="#FF6F61" height="30.2969" rx="3.5" ry="3.5" style="stroke:#454645;stroke-width:1.5;" width="100.6113" x="857.8291" y="50"/><text fill="#FFFFFF" font-family="sans-serif" font-size="14" lengthAdjust="spacing" textLength="86.6113" x="864.8291" y="69.9951">MessageLog</text></g><g><title>Mesh Data Transfer</title><rect fill="#FFFFFF" height="493.6016" style="stroke:#181818;stroke-width:1;" width="10" x="512.5884" y="169.5625"/></g><g><title>Mesh</title><rect fill="#FFFFFF" height="100.3984" style="stroke:#181818;stroke-width:1;" width="10" x="638.5679" y="288.0938"/></g><g class="message" data-participant-1="User" data-participant-2="AMQP"><polygon fill="#454645" points="223.374,108.4297,233.374,112.4297,223.374,116.4297" style="stroke:#454645;stroke-width:1;"/><line style="stroke:#454645;stroke-width:1;" x1="67.083" x2="229.374" y1="112.4297" y2="112.4297"/><text fill="#000000" font-family="sans-serif" font-size="13" lengthAdjust="spacing" textLength="96.9795" x="74.083" y="107.3638">Import request</text></g><g class="message" data-participant-1="AMQP" data-participant-2="MAR"><polygon fill="#454645" points="500.5884,165.5625,510.5884,169.5625,500.5884,173.5625" style="stroke:#454645;stroke-width:1;"/><line style="stroke:#454645;stroke-width:1;" x1="235.374" x2="506.5884" y1="169.5625" y2="169.5625"/><text fill="#000000" font-family="sans-serif" font-size="13" lengthAdjust="spacing" textLength="96.9795" x="242.374" y="164.4966">Import request</text></g><path d="M435.3188,184.5625 L501.27,184.5625 L501.27,191.6953 L491.27,201.6953 L431.8188,201.6953 L431.8188,188.0625 A3.5,3.5 0 0 1 435.3188,184.5625" fill="#EEEEEE" style="stroke:#454645;stroke-width:1.5;"/><rect fill="none" height="75.3984" rx="3.5" ry="3.5" style="stroke:#454645;stroke-width:1;" width="426.0103" x="431.8188" y="184.5625"/><text fill="#454645" font-family="sans-serif" font-size="13" font-weight="bold" lengthAdjust="spacing" textLength="24.4512" x="446.8188" y="197.6294">opt</text><g class="message" data-participant-1="MAR" data-participant-2="DB"><polygon fill="#454645" points="781.2964,218.8281,791.2964,222.8281,781.2964,226.8281" style="stroke:#454645;stroke-width:1;"/><line style="stroke:#454645;stroke-width:1;" x1="522.5884" x2="787.2964" y1="222.8281" y2="222.8281"/><text fill="#000000" font-family="sans-serif" font-size="13" lengthAdjust="spacing" textLength="246.708" x="529.5884" y="217.7622">Fetch data(Translate sender/receiver)</text></g><g class="message" data-participant-1="DB" data-participant-2="MAR"><polygon fill="#454645" points="533.5884,247.9609,523.5884,251.9609,533.5884,255.9609" style="stroke:#454645;stroke-width:1;"/><line style="stroke:#454645;stroke-width:1;stroke-dasharray:2,2;" x1="527.5884" x2="792.2964" y1="251.9609" y2="251.9609"/><text fill="#000000" font-family="sans-serif" font-size="13" lengthAdjust="spacing" textLength="63.0195" x="539.5884" y="246.895">Response</text></g><g class="message" data-participant-1="MAR" data-participant-2="Mesh"><polygon fill="#454645" points="626.5679,284.0938,636.5679,288.0938,626.5679,292.0938" style="stroke:#454645;stroke-width:1;"/><line style="stroke:#454645;stroke-width:1;" x1="522.5884" x2="632.5679" y1="288.0938" y2="288.0938"/><text fill="#000000" font-family="sans-serif" font-size="13" lengthAdjust="spacing" textLength="96.9795" x="529.5884" y="283.0278">Import request</text></g><g class="message" data-participant-1="Mesh" data-participant-2="Mesh"><line style="stroke:#454645;stroke-width:1;" x1="648.5679" x2="690.5679" y1="317.2266" y2="317.2266"/><line style="stroke:#454645;stroke-width:1;" x1="690.5679" x2="690.5679" y1="317.2266" y2="330.2266"/><line style="stroke:#454645;stroke-width:1;" x1="649.5679" x2="690.5679" y1="330.2266" y2="330.2266"/><polygon fill="#454645" points="659.5679,326.2266,649.5679,330.2266,659.5679,334.2266" style="stroke:#454645;stroke-width:1;"/><text fill="#000000" font-family="sans-serif" font-size="13" lengthAdjust="spacing" textLength="76.5591" x="655.5679" y="312.1606">Import data</text></g><g class="message" data-participant-1="Mesh" data-participant-2="DB"><polygon fill="#454645" points="781.2964,355.3594,791.2964,359.3594,781.2964,363.3594" style="stroke:#454645;stroke-width:1;"/><line style="stroke:#454645;stroke-width:1;" x1="648.5679" x2="787.2964" y1="359.3594" y2="359.3594"/><text fill="#000000" font-family="sans-serif" font-size="13" lengthAdjust="spacing" textLength="70.5034" x="655.5679" y="354.2935">Log import</text></g><g class="message" data-participant-1="Mesh" data-participant-2="MAR"><polygon fill="#454645" points="533.5884,384.4922,523.5884,388.4922,533.5884,392.4922" style="stroke:#454645;stroke-width:1;"/><line style="stroke:#454645;stroke-width:1;stroke-dasharray:2,2;" x1="527.5884" x2="642.5679" y1="388.4922" y2="388.4922"/><text fill="#000000" font-family="sans-serif" font-size="13" lengthAdjust="spacing" textLength="63.0195" x="539.5884" y="383.4263">Response</text></g><g class="message" data-participant-1="ML" data-participant-2="DB"><polygon fill="#454645" points="804.2964,413.625,794.2964,417.625,804.2964,421.625" style="stroke:#454645;stroke-width:1;"/><line style="stroke:#454645;stroke-width:1;" x1="798.2964" x2="907.1348" y1="417.625" y2="417.625"/><text fill="#000000" font-family="sans-serif" font-size="13" lengthAdjust="spacing" textLength="63.9717" x="810.2964" y="412.5591">Read logs</text></g><path d="M122.666,432.625 L183.6089,432.625 L183.6089,439.7578 L173.6089,449.7578 L119.166,449.7578 L119.166,436.125 A3.5,3.5 0 0 1 122.666,432.625" fill="#EEEEEE" style="stroke:#454645;stroke-width:1.5;"/><rect fill="none" height="223.5391" rx="3.5" ry="3.5" style="stroke:#454645;stroke-width:1;" width="494.1919" x="119.166" y="432.625"/><text fill="#454645" font-family="sans-serif" font-size="13" font-weight="bold" lengthAdjust="spacing" textLength="19.4429" x="134.166" y="445.6919">alt</text><text fill="#454645" font-family="sans-serif" font-size="11" font-weight="bold" lengthAdjust="spacing" textLength="58.0293" x="198.6089" y="444.8354">[success]</text><g class="message" data-participant-1="MAR" data-participant-2="AMQP"><polygon fill="#454645" points="246.374,466.8906,236.374,470.8906,246.374,474.8906" style="stroke:#454645;stroke-width:1;"/><line style="stroke:#454645;stroke-width:1;" x1="240.374" x2="511.5884" y1="470.8906" y2="470.8906"/><text fill="#000000" font-family="sans-serif" font-size="13" lengthAdjust="spacing" textLength="66.0347" x="252.374" y="465.8247">Import OK</text></g><g class="message" data-participant-1="MAR" data-participant-2="AMQP"><polygon fill="#454645" points="246.374,496.0234,236.374,500.0234,246.374,504.0234" style="stroke:#454645;stroke-width:1;"/><line style="stroke:#454645;stroke-width:1;" x1="240.374" x2="511.5884" y1="500.0234" y2="500.0234"/><text fill="#000000" font-family="sans-serif" font-size="13" lengthAdjust="spacing" textLength="154.229" x="252.374" y="494.9575">Remove import request</text></g><line style="stroke:#454645;stroke-width:1;stroke-dasharray:2,2;" x1="119.166" x2="613.3579" y1="509.0234" y2="509.0234"/><text fill="#454645" font-family="sans-serif" font-size="11" font-weight="bold" lengthAdjust="spacing" textLength="50.5205" x="124.166" y="519.2339">[failure]</text><path d="M132.666,529.8281 L193.6089,529.8281 L193.6089,536.9609 L183.6089,546.9609 L129.166,546.9609 L129.166,533.3281 A3.5,3.5 0 0 1 132.666,529.8281" fill="#EEEEEE" style="stroke:#454645;stroke-width:1.5;"/><rect fill="none" height="119.3359" rx="3.5" ry="3.5" style="stroke:#454645;stroke-width:1;" width="474.1919" x="129.166" y="529.8281"/><text fill="#454645" font-family="sans-serif" font-size="13" font-weight="bold" lengthAdjust="spacing" textLength="19.4429" x="144.166" y="542.895">alt</text><text fill="#454645" font-family="sans-serif" font-size="11" font-weight="bold" lengthAdjust="spacing" textLength="118.4756" x="208.6089" y="542.0386">[use failure queue]</text><g class="message" data-participant-1="MAR" data-participant-2="AMQP"><polygon fill="#454645" points="246.374,564.0938,236.374,568.0938,246.374,572.0938" style="stroke:#454645;stroke-width:1;"/><line style="stroke:#454645;stroke-width:1;" x1="240.374" x2="511.5884" y1="568.0938" y2="568.0938"/><text fill="#000000" font-family="sans-serif" font-size="13" lengthAdjust="spacing" textLength="202.8203" x="252.374" y="563.0278">Send message to failure queue</text></g><g class="message" data-participant-1="MAR" data-participant-2="AMQP"><polygon fill="#454645" points="246.374,593.2266,236.374,597.2266,246.374,601.2266" style="stroke:#454645;stroke-width:1;"/><line style="stroke:#454645;stroke-width:1;" x1="240.374" x2="511.5884" y1="597.2266" y2="597.2266"/><text fill="#000000" font-family="sans-serif" font-size="13" lengthAdjust="spacing" textLength="203.2202" x="252.374" y="592.1606">Reject original import message</text></g><line style="stroke:#454645;stroke-width:1;stroke-dasharray:2,2;" x1="129.166" x2="603.3579" y1="606.2266" y2="606.2266"/><text fill="#454645" font-family="sans-serif" font-size="11" font-weight="bold" lengthAdjust="spacing" textLength="112.0249" x="134.166" y="616.437">[no failure queue]</text><g class="message" data-participant-1="MAR" data-participant-2="AMQP"><polygon fill="#454645" points="246.374,637.1641,236.374,641.1641,246.374,645.1641" style="stroke:#454645;stroke-width:1;"/><line style="stroke:#454645;stroke-width:1;" x1="240.374" x2="511.5884" y1="641.1641" y2="641.1641"/><text fill="#000000" font-family="sans-serif" font-size="13" lengthAdjust="spacing" textLength="253.2144" x="252.374" y="636.0981">Release the request back to the queue</text></g><!--SRC=[XLFRZjD037ttLvW-WLRjllS1gLK5Mj48IE43PYTkEhkJcJ3ZL2fVZpr92cLN4AcHQX-VStp96pvHHyZn0ldPXTuaqw5tH_8kq86JOMelcADtpH-0p1TFyaxEyj1v06Cv9XoVnVTCwNupSEmCknWMQ39g37uCDD2CsbHVlznlVWw9y43fx2pXTiW5h2aG9NRMzIOmBYhA9zmPDlWjcP2Fb0gmsjGtE8L18x17aulGub1zB7KQA2MxxTyLsRIqZstXsmEeKro-BoPmZGzT7nDZ8Z6V6M2rMW6Kd614_-xk9IRs399In6wxnW_4zeHgwsrnxsMec2aqCgP4bjoPqZlORPSZutAvnffo7qCc41JCNDhTAt9bDbFwcbIrQqPDQ8UkvARmAs9GxITqJQP17ziig_MCUR1M1ZKRqVQlIfy_tOPhwkAP9gshIVAoaADnNlPTA8VV_x7SnItBGHh7RboENEU_e3KzaMMCoRKk63yhJyMZSlWFWoSz6FaMPiFuQEop2cjiBD5LwAyXkNPtrYKAooy0]--></g></svg>
