<svg xmlns="http://www.w3.org/2000/svg" xmlns:xlink="http://www.w3.org/1999/xlink" contentStyleType="text/css" height="1347px" preserveAspectRatio="none" style="width:1003px;height:1347px;background:#DDDDDD;" version="1.1" viewBox="0 0 1003 1347" width="1003px" zoomAndPan="magnify"><defs/><g><rect fill="#DDDDDD" height="1347" style="stroke:none;stroke-width:1.0;" width="1003" x="0" y="0"/><rect fill="#FFFFFF" height="541.2656" style="stroke:#454645;stroke-width:1.0;" width="10" x="261.5986" y="114.9609"/><rect fill="#FFFFFF" height="632.2969" style="stroke:#454645;stroke-width:1.0;" width="10" x="261.5986" y="690.2266"/><rect fill="#FFFFFF" height="30.3516" style="stroke:#454645;stroke-width:1.0;" width="10" x="561.5083" y="843.6328"/><rect fill="#FFFFFF" height="134.4063" style="stroke:#454645;stroke-width:1.0;" width="10" x="658.2632" y="973.0391"/><rect fill="none" height="198.9453" rx="3.5" ry="3.5" style="stroke:#454645;stroke-width:1.0;" width="788.6777" x="207.585" y="129.9609"/><rect fill="none" height="306.3203" rx="3.5" ry="3.5" style="stroke:#454645;stroke-width:1.0;" width="517.5273" x="10" y="342.9063"/><rect fill="none" height="138.2422" rx="3.5" ry="3.5" style="stroke:#454645;stroke-width:1.0;" width="470.6538" x="20" y="411.6094"/><rect fill="none" height="420.5391" rx="3.5" ry="3.5" style="stroke:#454645;stroke-width:1.0;" width="798.6777" x="197.585" y="888.9844"/><rect fill="none" height="120.8906" rx="3.5" ry="3.5" style="stroke:#454645;stroke-width:1.0;" width="301.8579" x="207.585" y="1122.4453"/><line style="stroke:#454645;stroke-width:0.5;" x1="85" x2="85" y1="82.6094" y2="656.2266"/><line style="stroke:#454645;stroke-width:1.0;stroke-dasharray:1.0,4.0;" x1="85" x2="85" y1="656.2266" y2="684.2266"/><line style="stroke:#454645;stroke-width:0.5;" x1="85" x2="85" y1="684.2266" y2="1340.5234"/><line style="stroke:#454645;stroke-width:0.5;" x1="266.585" x2="266.585" y1="82.6094" y2="656.2266"/><line style="stroke:#454645;stroke-width:1.0;stroke-dasharray:1.0,4.0;" x1="266.585" x2="266.585" y1="656.2266" y2="684.2266"/><line style="stroke:#454645;stroke-width:0.5;" x1="266.585" x2="266.585" y1="684.2266" y2="1340.5234"/><line style="stroke:#454645;stroke-width:0.5;" x1="566.3911" x2="566.3911" y1="82.6094" y2="656.2266"/><line style="stroke:#454645;stroke-width:1.0;stroke-dasharray:1.0,4.0;" x1="566.3911" x2="566.3911" y1="656.2266" y2="684.2266"/><line style="stroke:#454645;stroke-width:0.5;" x1="566.3911" x2="566.3911" y1="684.2266" y2="1340.5234"/><line style="stroke:#454645;stroke-width:0.5;" x1="662.6255" x2="662.6255" y1="82.6094" y2="656.2266"/><line style="stroke:#454645;stroke-width:1.0;stroke-dasharray:1.0,4.0;" x1="662.6255" x2="662.6255" y1="656.2266" y2="684.2266"/><line style="stroke:#454645;stroke-width:0.5;" x1="662.6255" x2="662.6255" y1="684.2266" y2="1340.5234"/><line style="stroke:#454645;stroke-width:0.5;" x1="810.2461" x2="810.2461" y1="82.6094" y2="656.2266"/><line style="stroke:#454645;stroke-width:1.0;stroke-dasharray:1.0,4.0;" x1="810.2461" x2="810.2461" y1="656.2266" y2="684.2266"/><line style="stroke:#454645;stroke-width:0.5;" x1="810.2461" x2="810.2461" y1="684.2266" y2="1340.5234"/><line style="stroke:#454645;stroke-width:0.5;" x1="952.332" x2="952.332" y1="82.6094" y2="656.2266"/><line style="stroke:#454645;stroke-width:1.0;stroke-dasharray:1.0,4.0;" x1="952.332" x2="952.332" y1="656.2266" y2="684.2266"/><line style="stroke:#454645;stroke-width:0.5;" x1="952.332" x2="952.332" y1="684.2266" y2="1340.5234"/><text fill="#454645" font-family="sans-serif" font-size="14" lengthAdjust="spacing" textLength="104.2686" x="30" y="79.5332">User/Automation</text><ellipse cx="85.1343" cy="13.5" fill="#454645" rx="8" ry="8" style="stroke:#454645;stroke-width:0.5;"/><path d="M85.1343,21.5 L85.1343,48.5 M72.1343,29.5 L98.1343,29.5 M85.1343,48.5 L72.1343,63.5 M85.1343,48.5 L98.1343,63.5 " fill="none" style="stroke:#454645;stroke-width:0.5;"/><rect fill="#FF6F61" height="31.6094" rx="3.5" ry="3.5" style="stroke:#454645;stroke-width:1.5;" width="98.0273" x="217.585" y="50"/><text fill="#FFFFFF" font-family="sans-serif" font-size="14" lengthAdjust="spacing" textLength="84.0273" x="224.585" y="71.5332">Trigger Relay</text><rect fill="#FF6F61" height="31.6094" rx="3.5" ry="3.5" style="stroke:#454645;stroke-width:1.5;" width="48.2344" x="542.3911" y="50"/><text fill="#FFFFFF" font-family="sans-serif" font-size="14" lengthAdjust="spacing" textLength="34.2344" x="549.3911" y="71.5332">Mesh</text><rect fill="#FF6F61" height="31.6094" rx="3.5" ry="3.5" style="stroke:#454645;stroke-width:1.5;" width="125.2754" x="600.6255" y="50"/><text fill="#FFFFFF" font-family="sans-serif" font-size="14" lengthAdjust="spacing" textLength="111.2754" x="607.6255" y="71.5332">Export Data Store</text><rect fill="#FF6F61" height="31.6094" rx="3.5" ry="3.5" style="stroke:#454645;stroke-width:1.5;" width="133.0684" x="744.2461" y="50"/><text fill="#FFFFFF" font-family="sans-serif" font-size="14" lengthAdjust="spacing" textLength="119.0684" x="751.2461" y="71.5332">Database Gateway</text><text fill="#454645" font-family="sans-serif" font-size="14" lengthAdjust="spacing" textLength="59.9307" x="920.332" y="79.5332">Database</text><path d="M935.2974,29 C935.2974,19 953.2974,19 953.2974,19 C953.2974,19 971.2974,19 971.2974,29 L971.2974,55 C971.2974,65 953.2974,65 953.2974,65 C953.2974,65 935.2974,65 935.2974,55 L935.2974,29 " fill="#98DDDE" style="stroke:#454645;stroke-width:1.5;"/><path d="M935.2974,29 C935.2974,39 953.2974,39 953.2974,39 C953.2974,39 971.2974,39 971.2974,29 " fill="none" style="stroke:#454645;stroke-width:1.5;"/><rect fill="#FFFFFF" height="541.2656" style="stroke:#454645;stroke-width:1.0;" width="10" x="261.5986" y="114.9609"/><rect fill="#FFFFFF" height="632.2969" style="stroke:#454645;stroke-width:1.0;" width="10" x="261.5986" y="690.2266"/><rect fill="#FFFFFF" height="30.3516" style="stroke:#454645;stroke-width:1.0;" width="10" x="561.5083" y="843.6328"/><rect fill="#FFFFFF" height="134.4063" style="stroke:#454645;stroke-width:1.0;" width="10" x="658.2632" y="973.0391"/><polygon fill="#454645" points="249.5986,110.9609,259.5986,114.9609,249.5986,118.9609" style="stroke:#454645;stroke-width:1.0;"/><line style="stroke:#454645;stroke-width:1.0;" x1="85.1343" x2="255.5986" y1="114.9609" y2="114.9609"/><text fill="#000000" font-family="sans-serif" font-size="13" lengthAdjust="spacing" textLength="33.23" x="92.1343" y="110.1045">Order</text><path d="M211.085,129.9609 L267.7559,129.9609 L267.7559,138.3125 L257.7559,148.3125 L207.585,148.3125 L207.585,133.4609 A3.5,3.5 0 0 1 211.085,129.9609 " fill="#EEEEEE" style="stroke:#454645;stroke-width:1.5;"/><rect fill="none" height="198.9453" rx="3.5" ry="3.5" style="stroke:#454645;stroke-width:1.0;" width="788.6777" x="207.585" y="129.9609"/><text fill="#454645" font-family="sans-serif" font-size="13" font-weight="bold" lengthAdjust="spacing" textLength="15.1709" x="222.585" y="144.4561">alt</text><text fill="#454645" font-family="sans-serif" font-size="11" font-weight="bold" lengthAdjust="spacing" textLength="101.4814" x="282.7559" y="143.3799">[time series export]</text><polygon fill="#454645" points="798.7803,166.6641,808.7803,170.6641,798.7803,174.6641" style="stroke:#454645;stroke-width:1.0;"/><line style="stroke:#454645;stroke-width:1.0;" x1="271.5986" x2="804.7803" y1="170.6641" y2="170.6641"/><text fill="#000000" font-family="sans-serif" font-size="13" lengthAdjust="spacing" textLength="49.8672" x="278.5986" y="165.8076">Get data</text><polygon fill="#454645" points="941.2974,197.0156,951.2974,201.0156,941.2974,205.0156" style="stroke:#454645;stroke-width:1.0;"/><line style="stroke:#454645;stroke-width:1.0;" x1="810.7803" x2="947.2974" y1="201.0156" y2="201.0156"/><text fill="#000000" font-family="sans-serif" font-size="13" lengthAdjust="spacing" textLength="61.4263" x="817.7803" y="196.1592">Fetch data</text><polygon fill="#454645" points="821.7803,227.3672,811.7803,231.3672,821.7803,235.3672" style="stroke:#454645;stroke-width:1.0;"/><line style="stroke:#454645;stroke-width:1.0;stroke-dasharray:2.0,2.0;" x1="815.7803" x2="952.2974" y1="231.3672" y2="231.3672"/><text fill="#000000" font-family="sans-serif" font-size="13" lengthAdjust="spacing" textLength="58.5381" x="827.7803" y="226.5107">Response</text><polygon fill="#454645" points="282.5986,257.7188,272.5986,261.7188,282.5986,265.7188" style="stroke:#454645;stroke-width:1.0;"/><line style="stroke:#454645;stroke-width:1.0;stroke-dasharray:2.0,2.0;" x1="276.5986" x2="809.7803" y1="261.7188" y2="261.7188"/><text fill="#000000" font-family="sans-serif" font-size="13" lengthAdjust="spacing" textLength="58.5381" x="288.5986" y="256.8623">Response</text><line style="stroke:#454645;stroke-width:1.0;stroke-dasharray:2.0,2.0;" x1="207.585" x2="996.2627" y1="270.7188" y2="270.7188"/><text fill="#454645" font-family="sans-serif" font-size="11" font-weight="bold" lengthAdjust="spacing" textLength="100.2515" x="212.585" y="282.1377">[availability export]</text><line style="stroke:#454645;stroke-width:1.0;" x1="271.5986" x2="313.5986" y1="307.9063" y2="307.9063"/><line style="stroke:#454645;stroke-width:1.0;" x1="313.5986" x2="313.5986" y1="307.9063" y2="320.9063"/><line style="stroke:#454645;stroke-width:1.0;" x1="272.5986" x2="313.5986" y1="320.9063" y2="320.9063"/><polygon fill="#454645" points="282.5986,316.9063,272.5986,320.9063,282.5986,324.9063" style="stroke:#454645;stroke-width:1.0;"/><text fill="#000000" font-family="sans-serif" font-size="13" lengthAdjust="spacing" textLength="133.6943" x="278.5986" y="303.0498">Validate export request</text><path d="M13.5,342.9063 L70.1709,342.9063 L70.1709,351.2578 L60.1709,361.2578 L10,361.2578 L10,346.4063 A3.5,3.5 0 0 1 13.5,342.9063 " fill="#EEEEEE" style="stroke:#454645;stroke-width:1.5;"/><rect fill="none" height="306.3203" rx="3.5" ry="3.5" style="stroke:#454645;stroke-width:1.0;" width="517.5273" x="10" y="342.9063"/><text fill="#454645" font-family="sans-serif" font-size="13" font-weight="bold" lengthAdjust="spacing" textLength="15.1709" x="25" y="357.4014">alt</text><text fill="#454645" font-family="sans-serif" font-size="11" font-weight="bold" lengthAdjust="spacing" textLength="260.4121" x="85.1709" y="356.3252">[time series data found / availability request valid]</text><line style="stroke:#454645;stroke-width:1.0;" x1="271.5986" x2="313.5986" y1="383.6094" y2="383.6094"/><line style="stroke:#454645;stroke-width:1.0;" x1="313.5986" x2="313.5986" y1="383.6094" y2="396.6094"/><line style="stroke:#454645;stroke-width:1.0;" x1="272.5986" x2="313.5986" y1="396.6094" y2="396.6094"/><polygon fill="#454645" points="282.5986,392.6094,272.5986,396.6094,282.5986,400.6094" style="stroke:#454645;stroke-width:1.0;"/><text fill="#000000" font-family="sans-serif" font-size="13" lengthAdjust="spacing" textLength="226.9287" x="278.5986" y="378.7529">Add request to internal message queue</text><path d="M23.5,411.6094 L80.1709,411.6094 L80.1709,419.9609 L70.1709,429.9609 L20,429.9609 L20,415.1094 A3.5,3.5 0 0 1 23.5,411.6094 " fill="#EEEEEE" style="stroke:#454645;stroke-width:1.5;"/><rect fill="none" height="138.2422" rx="3.5" ry="3.5" style="stroke:#454645;stroke-width:1.0;" width="470.6538" x="20" y="411.6094"/><text fill="#454645" font-family="sans-serif" font-size="13" font-weight="bold" lengthAdjust="spacing" textLength="15.1709" x="35" y="426.1045">alt</text><text fill="#454645" font-family="sans-serif" font-size="11" font-weight="bold" lengthAdjust="spacing" textLength="158.3076" x="95.1709" y="425.0283">[message added to the queue]</text><line style="stroke:#454645;stroke-width:1.0;" x1="271.5986" x2="313.5986" y1="452.3125" y2="452.3125"/><line style="stroke:#454645;stroke-width:1.0;" x1="313.5986" x2="313.5986" y1="452.3125" y2="465.3125"/><line style="stroke:#454645;stroke-width:1.0;" x1="272.5986" x2="313.5986" y1="465.3125" y2="465.3125"/><polygon fill="#454645" points="282.5986,461.3125,272.5986,465.3125,282.5986,469.3125" style="stroke:#454645;stroke-width:1.0;"/><text fill="#000000" font-family="sans-serif" font-size="13" lengthAdjust="spacing" textLength="190.0552" x="278.5986" y="447.4561">Add new export status: Accepted</text><polygon fill="#454645" points="96.1343,491.6641,86.1343,495.6641,96.1343,499.6641" style="stroke:#454645;stroke-width:1.0;"/><line style="stroke:#454645;stroke-width:1.0;" x1="90.1343" x2="260.5986" y1="495.6641" y2="495.6641"/><text fill="#000000" font-family="sans-serif" font-size="13" lengthAdjust="spacing" textLength="152.4644" x="102.1343" y="490.8076">Accepted: export status ID</text><line style="stroke:#454645;stroke-width:1.0;stroke-dasharray:2.0,2.0;" x1="20" x2="490.6538" y1="504.6641" y2="504.6641"/><text fill="#454645" font-family="sans-serif" font-size="11" font-weight="bold" lengthAdjust="spacing" textLength="265.3105" x="25" y="516.083">[failed to queue the message: capacity exceeded?]</text><polygon fill="#454645" points="96.1343,537.8516,86.1343,541.8516,96.1343,545.8516" style="stroke:#454645;stroke-width:1.0;"/><line style="stroke:#454645;stroke-width:1.0;" x1="90.1343" x2="260.5986" y1="541.8516" y2="541.8516"/><text fill="#000000" font-family="sans-serif" font-size="13" lengthAdjust="spacing" textLength="112.7344" x="102.1343" y="536.9951">Service unavailable</text><line style="stroke:#454645;stroke-width:1.0;stroke-dasharray:2.0,2.0;" x1="10" x2="527.5273" y1="557.8516" y2="557.8516"/><text fill="#454645" font-family="sans-serif" font-size="11" font-weight="bold" lengthAdjust="spacing" textLength="140.5723" x="15" y="569.2705">[no time series data found]</text><polygon fill="#454645" points="96.1343,591.0391,86.1343,595.0391,96.1343,599.0391" style="stroke:#454645;stroke-width:1.0;"/><line style="stroke:#454645;stroke-width:1.0;" x1="90.1343" x2="260.5986" y1="595.0391" y2="595.0391"/><text fill="#000000" font-family="sans-serif" font-size="13" lengthAdjust="spacing" textLength="62.8735" x="102.1343" y="590.1826">No content</text><line style="stroke:#454645;stroke-width:1.0;stroke-dasharray:2.0,2.0;" x1="10" x2="527.5273" y1="604.0391" y2="604.0391"/><text fill="#454645" font-family="sans-serif" font-size="11" font-weight="bold" lengthAdjust="spacing" textLength="147.3237" x="15" y="615.458">[avalilability request invalid]</text><polygon fill="#454645" points="96.1343,637.2266,86.1343,641.2266,96.1343,645.2266" style="stroke:#454645;stroke-width:1.0;"/><line style="stroke:#454645;stroke-width:1.0;" x1="90.1343" x2="260.5986" y1="641.2266" y2="641.2266"/><text fill="#000000" font-family="sans-serif" font-size="13" lengthAdjust="spacing" textLength="70.1035" x="102.1343" y="636.3701">Bad request</text><path d="M169,706.7266 L169,725.7266 A3.5,3.5 0 0 0 172.5,729.2266 L358.5,729.2266 A3.5,3.5 0 0 0 362,725.7266 L362,713.2266 L352,703.2266 L172.5,703.2266 A3.5,3.5 0 0 0 169,706.7266 " fill="#90EE90" style="stroke:#454645;stroke-width:1.0;"/><path d="M352,703.2266 L352,711.4766 A1.75,1.75 0 0 0 353.75,713.2266 L362,713.2266 L352,703.2266 " fill="#90EE90" style="stroke:#454645;stroke-width:1.0;"/><text fill="#454645" font-family="sans-serif" font-size="13" lengthAdjust="spacing" textLength="172.7324" x="175" y="721.7217">Handle next queued message</text><line style="stroke:#454645;stroke-width:1.0;" x1="271.5986" x2="313.5986" y1="756.9297" y2="756.9297"/><line style="stroke:#454645;stroke-width:1.0;" x1="313.5986" x2="313.5986" y1="756.9297" y2="769.9297"/><line style="stroke:#454645;stroke-width:1.0;" x1="272.5986" x2="313.5986" y1="769.9297" y2="769.9297"/><polygon fill="#454645" points="282.5986,765.9297,272.5986,769.9297,282.5986,773.9297" style="stroke:#454645;stroke-width:1.0;"/><text fill="#000000" font-family="sans-serif" font-size="13" lengthAdjust="spacing" textLength="208.1206" x="278.5986" y="752.0732">Remove the request from the queue</text><line style="stroke:#454645;stroke-width:1.0;" x1="271.5986" x2="313.5986" y1="800.2813" y2="800.2813"/><line style="stroke:#454645;stroke-width:1.0;" x1="313.5986" x2="313.5986" y1="800.2813" y2="813.2813"/><line style="stroke:#454645;stroke-width:1.0;" x1="272.5986" x2="313.5986" y1="813.2813" y2="813.2813"/><polygon fill="#454645" points="282.5986,809.2813,272.5986,813.2813,282.5986,817.2813" style="stroke:#454645;stroke-width:1.0;"/><text fill="#000000" font-family="sans-serif" font-size="13" lengthAdjust="spacing" textLength="234.8442" x="278.5986" y="795.4248">Update export status: Processing started</text><polygon fill="#454645" points="549.5083,839.6328,559.5083,843.6328,549.5083,847.6328" style="stroke:#454645;stroke-width:1.0;"/><line style="stroke:#454645;stroke-width:1.0;" x1="271.5986" x2="555.5083" y1="843.6328" y2="843.6328"/><text fill="#000000" font-family="sans-serif" font-size="13" lengthAdjust="spacing" textLength="49.8672" x="278.5986" y="838.7764">Get data</text><polygon fill="#454645" points="282.5986,869.9844,272.5986,873.9844,282.5986,877.9844" style="stroke:#454645;stroke-width:1.0;"/><line style="stroke:#454645;stroke-width:1.0;stroke-dasharray:2.0,2.0;" x1="276.5986" x2="565.5083" y1="873.9844" y2="873.9844"/><text fill="#000000" font-family="sans-serif" font-size="13" lengthAdjust="spacing" textLength="58.5381" x="288.5986" y="869.1279">Response</text><path d="M201.085,888.9844 L257.7559,888.9844 L257.7559,897.3359 L247.7559,907.3359 L197.585,907.3359 L197.585,892.4844 A3.5,3.5 0 0 1 201.085,888.9844 " fill="#EEEEEE" style="stroke:#454645;stroke-width:1.5;"/><rect fill="none" height="420.5391" rx="3.5" ry="3.5" style="stroke:#454645;stroke-width:1.0;" width="798.6777" x="197.585" y="888.9844"/><text fill="#454645" font-family="sans-serif" font-size="13" font-weight="bold" lengthAdjust="spacing" textLength="15.1709" x="212.585" y="903.4795">alt</text><text fill="#454645" font-family="sans-serif" font-size="11" font-weight="bold" lengthAdjust="spacing" textLength="72.1177" x="272.7559" y="902.4033">[data fetched]</text><line style="stroke:#454645;stroke-width:1.0;" x1="271.5986" x2="313.5986" y1="929.6875" y2="929.6875"/><line style="stroke:#454645;stroke-width:1.0;" x1="313.5986" x2="313.5986" y1="929.6875" y2="942.6875"/><line style="stroke:#454645;stroke-width:1.0;" x1="272.5986" x2="313.5986" y1="942.6875" y2="942.6875"/><polygon fill="#454645" points="282.5986,938.6875,272.5986,942.6875,282.5986,946.6875" style="stroke:#454645;stroke-width:1.0;"/><text fill="#000000" font-family="sans-serif" font-size="13" lengthAdjust="spacing" textLength="265.9097" x="278.5986" y="924.8311">Update export status: Data fetched from Mesh</text><polygon fill="#454645" points="646.2632,969.0391,656.2632,973.0391,646.2632,977.0391" style="stroke:#454645;stroke-width:1.0;"/><line style="stroke:#454645;stroke-width:1.0;" x1="271.5986" x2="652.2632" y1="973.0391" y2="973.0391"/><text fill="#000000" font-family="sans-serif" font-size="13" lengthAdjust="spacing" textLength="66.4854" x="278.5986" y="968.1826">Export data</text><line style="stroke:#454645;stroke-width:1.0;" x1="668.2632" x2="710.2632" y1="1003.3906" y2="1003.3906"/><line style="stroke:#454645;stroke-width:1.0;" x1="710.2632" x2="710.2632" y1="1003.3906" y2="1016.3906"/><line style="stroke:#454645;stroke-width:1.0;" x1="669.2632" x2="710.2632" y1="1016.3906" y2="1016.3906"/><polygon fill="#454645" points="679.2632,1012.3906,669.2632,1016.3906,679.2632,1020.3906" style="stroke:#454645;stroke-width:1.0;"/><text fill="#000000" font-family="sans-serif" font-size="13" lengthAdjust="spacing" textLength="59.9854" x="675.2632" y="998.5342">Store data</text><polygon fill="#454645" points="798.7803,1042.7422,808.7803,1046.7422,798.7803,1050.7422" style="stroke:#454645;stroke-width:1.0;"/><line style="stroke:#454645;stroke-width:1.0;" x1="668.2632" x2="804.7803" y1="1046.7422" y2="1046.7422"/><text fill="#000000" font-family="sans-serif" font-size="13" lengthAdjust="spacing" textLength="118.5171" x="675.2632" y="1041.8857">Log the export result</text><polygon fill="#454645" points="941.2974,1073.0938,951.2974,1077.0938,941.2974,1081.0938" style="stroke:#454645;stroke-width:1.0;"/><line style="stroke:#454645;stroke-width:1.0;" x1="810.7803" x2="947.2974" y1="1077.0938" y2="1077.0938"/><text fill="#000000" font-family="sans-serif" font-size="13" lengthAdjust="spacing" textLength="118.5171" x="817.7803" y="1072.2373">Log the export result</text><polygon fill="#454645" points="282.5986,1103.4453,272.5986,1107.4453,282.5986,1111.4453" style="stroke:#454645;stroke-width:1.0;"/><line style="stroke:#454645;stroke-width:1.0;stroke-dasharray:2.0,2.0;" x1="276.5986" x2="662.2632" y1="1107.4453" y2="1107.4453"/><text fill="#000000" font-family="sans-serif" font-size="13" lengthAdjust="spacing" textLength="58.5381" x="288.5986" y="1102.5889">Response</text><path d="M211.085,1122.4453 L267.7559,1122.4453 L267.7559,1130.7969 L257.7559,1140.7969 L207.585,1140.7969 L207.585,1125.9453 A3.5,3.5 0 0 1 211.085,1122.4453 " fill="#EEEEEE" style="stroke:#454645;stroke-width:1.5;"/><rect fill="none" height="120.8906" rx="3.5" ry="3.5" style="stroke:#454645;stroke-width:1.0;" width="301.8579" x="207.585" y="1122.4453"/><text fill="#454645" font-family="sans-serif" font-size="13" font-weight="bold" lengthAdjust="spacing" textLength="15.1709" x="222.585" y="1136.9404">alt</text><text fill="#454645" font-family="sans-serif" font-size="11" font-weight="bold" lengthAdjust="spacing" textLength="50.7515" x="282.7559" y="1135.8643">[success]</text><line style="stroke:#454645;stroke-width:1.0;" x1="271.5986" x2="313.5986" y1="1163.1484" y2="1163.1484"/><line style="stroke:#454645;stroke-width:1.0;" x1="313.5986" x2="313.5986" y1="1163.1484" y2="1176.1484"/><line style="stroke:#454645;stroke-width:1.0;" x1="272.5986" x2="313.5986" y1="1176.1484" y2="1176.1484"/><polygon fill="#454645" points="282.5986,1172.1484,272.5986,1176.1484,282.5986,1180.1484" style="stroke:#454645;stroke-width:1.0;"/><text fill="#000000" font-family="sans-serif" font-size="13" lengthAdjust="spacing" textLength="208.8442" x="278.5986" y="1158.292">Update export status: Data exported</text><line style="stroke:#454645;stroke-width:1.0;stroke-dasharray:2.0,2.0;" x1="207.585" x2="509.4429" y1="1185.1484" y2="1185.1484"/><text fill="#454645" font-family="sans-serif" font-size="11" font-weight="bold" lengthAdjust="spacing" textLength="40.3369" x="212.585" y="1196.5674">[failure]</text><line style="stroke:#454645;stroke-width:1.0;" x1="271.5986" x2="313.5986" y1="1222.3359" y2="1222.3359"/><line style="stroke:#454645;stroke-width:1.0;" x1="313.5986" x2="313.5986" y1="1222.3359" y2="1235.3359"/><line style="stroke:#454645;stroke-width:1.0;" x1="272.5986" x2="313.5986" y1="1235.3359" y2="1235.3359"/><polygon fill="#454645" points="282.5986,1231.3359,272.5986,1235.3359,282.5986,1239.3359" style="stroke:#454645;stroke-width:1.0;"/><text fill="#000000" font-family="sans-serif" font-size="13" lengthAdjust="spacing" textLength="162.5889" x="278.5986" y="1217.4795">Update export status: Failed</text><line style="stroke:#454645;stroke-width:1.0;stroke-dasharray:2.0,2.0;" x1="197.585" x2="996.2627" y1="1251.3359" y2="1251.3359"/><text fill="#454645" font-family="sans-serif" font-size="11" font-weight="bold" lengthAdjust="spacing" textLength="163.1792" x="202.585" y="1262.7549">[failed to fetch data from Mesh]</text><line style="stroke:#454645;stroke-width:1.0;" x1="271.5986" x2="313.5986" y1="1288.5234" y2="1288.5234"/><line style="stroke:#454645;stroke-width:1.0;" x1="313.5986" x2="313.5986" y1="1288.5234" y2="1301.5234"/><line style="stroke:#454645;stroke-width:1.0;" x1="272.5986" x2="313.5986" y1="1301.5234" y2="1301.5234"/><polygon fill="#454645" points="282.5986,1297.5234,272.5986,1301.5234,282.5986,1305.5234" style="stroke:#454645;stroke-width:1.0;"/><text fill="#000000" font-family="sans-serif" font-size="13" lengthAdjust="spacing" textLength="162.5889" x="278.5986" y="1283.667">Update export status: Failed</text><!--SRC=[ZLHDRzim3BthLt2zx12alVkmeKNQRi3M3Kcx7OOTL8bEXCcI9z5fy-z7IRPZ8-iw7mA47u-FZwJUq0uR1F874NyPryeW6x2cHciSRYX8mkq1ehT6Jm8Y7IpoRp2AkiOA8HNv0EKxUuWOBYuxyeqauzqPo0Z99ZYPZ3AjT0Hdzy5ijnXWZLOUSipzUXRn6UDkddBztFf0i98aOSC5CQTThpRpiEH_b17Xbja_zU2hgzllGWyU_iQex1GYCOJbEsQnM5Jm9MWcB2q16TQ7VGOZO2OWxjSfC25MS8i42LQalyLSmGsIsWrcM8x1QuojTn7xu5njOaMRwEobiVBHM4E7US4K-qto9BYjtWC1VtSOIQ3J9snJVQXzvpHSp67xBDWdj0dwfTQZZpmOHnYSjD1WZ7ABm9uESvt18hL6dM9vZtht7CxXqy0ragGkibafR0c7maduex6QHyF7LP6bPlgbKgwIw_KaAb2obQhefH2PqViPzWR3tYY4plKgMCo2PM3dNn1j1d7dGNcMmz4u9Nkgft5JHKlcbTIpAMdaOp7xD4DUU75-VYx4MzWP5jADifgOSqpWbcCHDwAjbqfQ2zepJ-UpH2pK8zPy2WoMiWPitU_pZmByizzhSUUvhj-pAmteWtIQ3zdXCnLPzS1Wd2Aa_Mmu8vCO6gs3R_uoSWv-QAVhEOpyQ_2AWOtR5jBZyDEHBnOmkQDawKzZkOJ9TQIrAzD9ruNwzQghINIXdD-KaiVFHYxSFogvDjjw5plo2pEpvwkju9FVvjx74uoTfSdzlnYIOLxeB7OgAJIvdd_qL6oeZwVH1NmrzIQVq77pZoTLZ-_LYKp_1PT2ZvkMDc-vhCGV]--></g></svg>