<svg xmlns="http://www.w3.org/2000/svg" width="304" height="112" viewbox="0 0 304 112">
  <path d="M81.93 69.866c6.843-15.048 1.184-33.076-13.572-41.503-9.479-5.415-20.547-5.626-29.837-1.54-.749.33-.672 1.408.112 1.647 3.342 1.016 6.83 2.322 10.347 3.841a24.786 24.786 0 0115.266 3.098c11.802 6.741 15.845 21.67 9.032 33.346a24.465 24.465 0 01-2.864 3.932c-3.074 3.023-13.713.693-24.674-5.567a2.063 2.063 0 00-2.861.847c-.5.981-.051 2.19.911 2.737 19.63 11.19 38.276 15.534 41.675 9.71 1.402-2.403-.014-6.17-3.534-10.548"/>
  <path d="M38.648 76.922c-9.817-6.29-13.843-18.759-9.487-29.497a24.5 24.5 0 014.346-7.033c2.97-3.142 13.698-.826 24.753 5.488a2.062 2.062 0 002.861-.847c.5-.981.051-2.19-.911-2.738-19.63-11.19-38.276-15.533-41.675-9.708-1.402 2.402.014 6.17 3.534 10.547-6.842 15.048-1.182 33.075 13.573 41.504 9.479 5.413 20.546 5.625 29.836 1.538.75-.33.673-1.407-.111-1.645-3.341-1.017-6.83-2.323-10.348-3.842a24.8 24.8 0 01-16.37-3.767M116.716 65.28c1.001.703 2.094 1.264 3.277 1.682 1.184.418 2.299.627 3.346.627 3.232 0 5.497-1.11 6.794-3.333 1.297-2.221 1.946-4.631 1.946-7.227 0-2.904-.604-5.412-1.81-7.525-1.206-2.112-3.516-3.168-6.93-3.168-1.047 0-2.162.221-3.346.66a14.398 14.398 0 00-3.277 1.717v16.566zM109 88V41.123h5.07l.734 2.574c1.456-1.1 3.151-1.991 5.087-2.674 1.934-.681 3.675-1.023 5.224-1.023 4.87 0 8.568 1.618 11.095 4.851 2.527 3.235 3.79 7.272 3.79 12.111 0 4.841-1.287 8.877-3.858 12.112-2.572 3.234-6.248 4.851-11.027 4.851-1.275 0-2.664-.22-4.166-.66a17.999 17.999 0 01-4.233-1.848v15.444L109 88zM170.124 57.266c0-3.243-.691-5.855-2.072-7.833-1.381-1.977-3.496-2.967-6.349-2.967-2.851 0-5.024.9-6.518 2.7-1.494 1.8-2.24 4.367-2.24 7.7 0 3.38.633 6.012 1.9 7.9 1.268 1.89 3.328 2.834 6.18 2.834 2.85 0 5.068-.866 6.654-2.6 1.584-1.733 2.399-4.31 2.445-7.734zM160.957 74c-5.116-.045-9.055-1.61-11.816-4.7-2.76-3.088-4.141-7.21-4.141-12.367.044-5.066 1.516-9.143 4.414-12.233 2.896-3.088 6.925-4.655 12.086-4.7 5.296 0 9.37 1.6 12.222 4.8C176.574 48 178 52.156 178 57.266c-.045 5.068-1.608 9.123-4.686 12.167-3.078 3.045-7.197 4.567-12.357 4.567zM204 51.82L196.588 73h-6.604L179 41h7.952l6.2 20.586L199.686 41h8.626l6.535 20.586 6.2-20.586H229l-10.984 32h-6.604L204 51.82M268 73V27.14l8-1.14v47h-8M240.034 54.002c.308-2.358 1.12-4.2 2.425-5.535 1.306-1.332 3.019-2 5.144-2 2.084 0 3.73.655 4.948 1.967 1.569 1.694 2.3 4.554 2.3 5.568h-14.817zm19.06-7.982c-3.362-4.984-7.736-6.02-11.291-6.02-4.87 0-8.721 1.566-11.553 4.7-2.836 3.132-4.25 7.257-4.25 12.367 0 5.114 1.526 9.214 4.579 12.303 3.057 3.09 7.327 4.63 12.82 4.63 3.988 0 7.835-1.557 10.622-3.331l-2.783-5.194c-2.433 1.545-4.795 2.192-7.71 2.192-2.92 0-5.177-.797-6.77-2.4-1.597-1.6-2.549-3.666-2.857-6.2h22.011c.395-5.49-.544-9.673-2.819-13.047z"/>
</svg>
