<svg width="242" height="112" viewBox="0 0 242 112" xmlns="http://www.w3.org/2000/svg">
  <title>Volue logo</title>
  <path fill="#082B33"
    d="M34.0590203 68.0678295c1.3699097 4.2562492 1.217761 4.6363869 1.217761 6.8405771h2.7400097c0-2.2041902-.1521487-2.6603935 1.217761-6.8405771l9.2090911-28.8819082h6.8497388l-12.481907 38.0025508H30.481907L18 39.1859213h6.84973877l9.20928153 28.8819082M147.88149 60.6192984c0 8.740695 4.718705 12.3888 11.416295 12.3888 7.839181 0 11.416485-4.6360066 11.416485-13.3767017V39.1859213h6.088805v38.0025508h-6.088805v-5.6242885h-2.74001c-1.978885 5.396282-6.925718 6.6884459-10.807319 6.6884459-10.351063 0-15.374065-6.6884459-15.374065-17.6333311V39.1859213h6.088614v21.4333771zM204.886033 43.2902295c-6.545442 0-10.959849 4.2562492-11.873122 11.2485771h23.898202c-.914035-6.9923279-5.328062-11.2485771-12.02508-11.2485771zm0-5.1684656c12.329758 0 18.341441 8.588564 18.341441 19.4573836v1.6721115h-30.442691c.228128 8.436623 4.794493 13.9087803 12.10125 13.9087803 5.632549 0 9.284879-3.1160262 11.187214-8.2844918h6.394436c-2.130844 7.8286689-7.687414 13.377082-17.58165 13.377082-12.10125 0-18.190245-8.5887541-18.190245-19.5334492v-1.1400328c0-10.8688196 6.088995-19.4573836 18.190245-19.4573836zM126.271422 24.08481311h-6.088805V71.792c0 2.9642754 2.435522 5.3964721 5.40385 5.3964721h6.830506v-5.9283606h-6.145551V24.08481311M78.5005353 76.4025246h13.3218669l10.2050082-8.5516721 2.3130794-13.1005836-6.6608383-11.5216525-12.5180876-4.5496721-12.5182779 4.5496721-6.6608383 11.5216525 2.3130794 13.1005836 10.2050082 8.5516721zM93.8622232 82H76.4607143L63.1300878 70.8297705l-3.0218371-17.1143738 8.7006592-15.0491934 16.352654-5.94357379 16.3522732 5.94357379 8.7008497 15.0491934-3.0220276 17.1143738L93.8622232 82z" />
</svg>
